<?xml version="1.0" encoding="UTF-8"?>
<svg id="Camada_2" xmlns="http://www.w3.org/2000/svg" viewBox="0 0 148.75 152.24">
  <defs>
    <style>
      .cls-1 {
        fill: #fff;
      }

      .cls-2 {
        fill: #96165c;
      }
    </style>
  </defs>
  <g id="BACKGROUND">
    <path class="cls-2" d="M7.61,57.44c-.9,0-1.71-.14-2.43-.43-.72-.28-1.33-.71-1.84-1.27-.51-.56-.9-1.26-1.18-2.11-.28-.84-.42-1.82-.42-2.95s.14-2.1.42-2.97c.28-.87.67-1.59,1.18-2.18s1.12-1.03,1.84-1.34c.72-.3,1.53-.46,2.43-.46,1.23,0,2.24.25,3.04.75.8.5,1.44,1.29,1.92,2.36l-2.49,1.29c-.18-.56-.45-1-.83-1.34-.37-.34-.92-.5-1.64-.5-.85,0-1.53.28-2.04.83s-.77,1.35-.77,2.4v2.13c0,1.05.26,1.85.77,2.4s1.19.83,2.04.83c.71,0,1.27-.19,1.7-.58.42-.39.74-.85.94-1.39l2.35,1.37c-.49,1.01-1.14,1.79-1.94,2.34-.8.55-1.82.83-3.05.83Z"/>
    <path class="cls-2" d="M20.05,57.44c-.87,0-1.67-.15-2.39-.44-.72-.29-1.33-.72-1.84-1.3-.51-.58-.9-1.29-1.18-2.14s-.42-1.84-.42-2.97.14-2.12.42-2.97.67-1.57,1.18-2.14c.51-.58,1.12-1.01,1.84-1.3.72-.29,1.52-.44,2.39-.44s1.67.15,2.39.44c.72.29,1.33.72,1.84,1.3.51.58.9,1.29,1.18,2.14s.42,1.84.42,2.97-.14,2.12-.42,2.97-.67,1.57-1.18,2.14c-.51.58-1.12,1.01-1.84,1.3-.72.29-1.52.44-2.39.44ZM20.05,54.88c.87,0,1.55-.28,2.04-.85.49-.57.73-1.39.73-2.45v-1.97c0-1.06-.24-1.88-.73-2.45-.49-.57-1.17-.85-2.04-.85s-1.55.28-2.04.85c-.49.57-.73,1.39-.73,2.45v1.97c0,1.06.24,1.88.73,2.45.49.57,1.17.85,2.04.85Z"/>
    <path class="cls-2" d="M32.71,50.95l-1.27-2.66h-.06v8.92h-2.71v-13.24h3.15l3.62,6.26,1.27,2.66h.06v-8.92h2.71v13.24h-3.15l-3.62-6.26Z"/>
    <path class="cls-2" d="M51.19,55.1h-.09c-.1.67-.44,1.23-1.02,1.67s-1.37.66-2.37.66c-.76,0-1.47-.15-2.13-.44-.66-.29-1.23-.72-1.73-1.29-.49-.57-.88-1.28-1.16-2.13-.28-.85-.42-1.83-.42-2.94s.14-2.1.44-2.96c.29-.86.7-1.58,1.22-2.16.52-.58,1.15-1.02,1.89-1.33.73-.3,1.55-.46,2.45-.46,1.19,0,2.21.26,3.07.77.86.51,1.54,1.28,2.03,2.31l-2.35,1.35c-.2-.52-.52-.96-.95-1.32-.43-.36-1.03-.54-1.8-.54-.9,0-1.61.26-2.14.78s-.8,1.33-.8,2.45v2.13c0,1.1.27,1.91.8,2.44s1.25.79,2.14.79c.35,0,.69-.04,1.01-.12.32-.08.59-.21.84-.38.24-.17.43-.38.56-.62.13-.24.2-.52.2-.85v-.66h-2.47v-2.41h5.22v7.38h-2.43v-2.11Z"/>
    <path class="cls-2" d="M59.69,57.21h-2.88v-13.24h6.28c.61,0,1.16.1,1.65.3.49.2.91.49,1.26.86.35.37.62.82.81,1.34.19.52.29,1.09.29,1.73,0,.9-.2,1.68-.6,2.35-.4.67-1,1.16-1.81,1.46l2.6,5.2h-3.21l-2.31-4.86h-2.07v4.86ZM62.73,49.92c.43,0,.77-.11,1.01-.33.25-.22.37-.55.37-.98v-.83c0-.43-.12-.76-.37-.98-.25-.22-.58-.33-1.01-.33h-3.04v3.45h3.04Z"/>
    <path class="cls-2" d="M69.97,57.21v-13.24h9.01v2.56h-6.13v2.69h5.26v2.56h-5.26v2.87h6.13v2.56h-9.01Z"/>
    <path class="cls-2" d="M86.16,57.44c-1.16,0-2.15-.2-2.96-.6-.81-.4-1.5-.92-2.07-1.55l1.9-1.92c.9,1,2,1.5,3.32,1.5.71,0,1.23-.14,1.58-.43.34-.29.51-.67.51-1.15,0-.36-.1-.67-.3-.91-.2-.24-.61-.41-1.23-.5l-1.31-.17c-1.4-.18-2.43-.6-3.08-1.27s-.98-1.56-.98-2.68c0-.6.11-1.14.34-1.63.23-.49.55-.92.98-1.27.42-.35.94-.63,1.56-.83.61-.2,1.31-.29,2.1-.29,1,0,1.88.16,2.64.48s1.41.78,1.95,1.39l-1.92,1.94c-.32-.36-.7-.66-1.15-.89-.45-.23-1.02-.35-1.7-.35-.65,0-1.13.11-1.44.34-.32.23-.47.54-.47.94,0,.45.12.78.37.98.25.2.65.34,1.2.43l1.31.21c1.37.22,2.38.64,3.04,1.26s.99,1.52.99,2.67c0,.63-.11,1.22-.34,1.75-.23.53-.56.99-1,1.37-.44.38-.98.67-1.62.88-.65.21-1.38.31-2.2.31Z"/>
    <path class="cls-2" d="M98.11,57.44c-1.16,0-2.15-.2-2.96-.6-.81-.4-1.5-.92-2.07-1.55l1.9-1.92c.9,1,2,1.5,3.32,1.5.71,0,1.23-.14,1.58-.43.34-.29.51-.67.51-1.15,0-.36-.1-.67-.3-.91-.2-.24-.61-.41-1.23-.5l-1.31-.17c-1.4-.18-2.43-.6-3.08-1.27s-.98-1.56-.98-2.68c0-.6.11-1.14.34-1.63.23-.49.55-.92.98-1.27.42-.35.94-.63,1.56-.83.61-.2,1.31-.29,2.1-.29,1,0,1.88.16,2.64.48s1.41.78,1.95,1.39l-1.92,1.94c-.32-.36-.7-.66-1.15-.89-.45-.23-1.02-.35-1.7-.35-.65,0-1.13.11-1.44.34-.32.23-.47.54-.47.94,0,.45.12.78.37.98.25.2.65.34,1.2.43l1.31.21c1.37.22,2.38.64,3.04,1.26s.99,1.52.99,2.67c0,.63-.11,1.22-.34,1.75-.23.53-.56.99-1,1.37-.44.38-.98.67-1.62.88-.65.21-1.38.31-2.2.31Z"/>
    <path class="cls-2" d="M111.36,57.44c-.87,0-1.67-.15-2.39-.44-.72-.29-1.33-.72-1.84-1.3-.51-.58-.9-1.29-1.18-2.14s-.42-1.84-.42-2.97.14-2.12.42-2.97.67-1.57,1.18-2.14c.51-.58,1.12-1.01,1.84-1.3.72-.29,1.52-.44,2.39-.44s1.67.15,2.39.44c.72.29,1.33.72,1.84,1.3.51.58.9,1.29,1.18,2.14s.42,1.84.42,2.97-.14,2.12-.42,2.97-.67,1.57-1.18,2.14c-.51.58-1.12,1.01-1.84,1.3-.72.29-1.52.44-2.39.44ZM111.36,54.88c.87,0,1.55-.28,2.04-.85.49-.57.73-1.39.73-2.45v-1.97c0-1.06-.24-1.88-.73-2.45-.49-.57-1.17-.85-2.04-.85s-1.55.28-2.04.85c-.49.57-.73,1.39-.73,2.45v1.97c0,1.06.24,1.88.73,2.45.49.57,1.17.85,2.04.85Z"/>
    <path class="cls-1" d="M16.8,0c.45.1.89.19,1.34.3,3.64.92,6.12,4.08,6.12,7.83,0,3.97.04,7.94-.04,11.91-.07,3.55-1.65,6.34-4.61,8.31-1.25.83-2.65,1.22-4.2,1.07v-4.87h.94v4.04c.8-.27,1.55-.42,2.18-.77,2.91-1.61,4.56-4.12,4.68-7.42.15-4.12.08-8.24.06-12.37-.02-3.97-3.23-7.06-7.29-7.06-.18,0-.37,0-.62,0V0C15.85,0,16.32,0,16.8,0Z"/>
    <path class="cls-1" d="M28.7,0c.45.1.89.19,1.33.3,3.64.92,6.12,4.08,6.12,7.83,0,3.97.05,7.94-.04,11.91-.09,3.82-1.84,6.73-5.17,8.64-1.16.66-2.35.86-3.63.73v-4.86h.94v4.04c.8-.27,1.55-.42,2.18-.77,2.96-1.64,4.58-4.21,4.69-7.57.12-4,0-8.01.07-12.01.09-4.46-3.78-7.36-7.36-7.27-.17,0-.33,0-.56,0V0C27.75,0,28.22,0,28.7,0Z"/>
    <path class="cls-1" d="M9.39,0c-.02.32-.03.64-.05.97-.41.07-.8.11-1.18.19-3.31.71-5.61,3.45-5.67,6.83-.05,3.22-.07,6.44-.03,9.66.04,3.46,2.82,6.4,6.32,6.79.18.02.36.05.55.08v.96c-.35-.04-.67-.06-.98-.11-4.01-.65-6.87-4-6.87-8.05,0-2.93.01-5.86.02-8.79C1.51,4.01,4.15.88,8.6.08c.06-.01.12-.05.18-.08.2,0,.41,0,.61,0Z"/>
    <path class="cls-1" d="M50.28,25.04c-1.48.02-2.8-.19-4.03-.84-2.64-1.39-4.07-3.54-4.08-6.57,0-3.16,0-6.32.02-9.48.01-3.56,2.6-6.6,6.11-7.18,2.91-.49,5.4.3,7.4,2.48,1.11,1.21,1.71,2.66,1.71,4.31.02,4.39.04,8.79-.03,13.18-.06,3.55-2.89,7.15-6.13,8-.3.08-.6.12-.98.2v-4.1Z"/>
    <g>
      <path class="cls-1" d="M1.51,66.04h7.93c1.39,0,2.65.22,3.8.66,1.15.44,2.12,1.1,2.92,1.98.8.88,1.43,1.97,1.87,3.29s.66,2.85.66,4.6-.22,3.28-.66,4.6-1.07,2.41-1.87,3.29c-.8.88-1.78,1.53-2.92,1.98-1.15.44-2.41.66-3.8.66H1.51v-21.05ZM9.44,83.02c1.37,0,2.44-.38,3.23-1.15.78-.76,1.18-1.99,1.18-3.68v-3.26c0-1.69-.39-2.92-1.18-3.68-.78-.76-1.86-1.15-3.23-1.15h-3.35v12.91h3.35Z"/>
      <path class="cls-1" d="M25.79,67.88c-.52,0-.9-.13-1.13-.38s-.35-.58-.35-.98v-.39c0-.4.12-.73.35-.98s.61-.38,1.13-.38.9.13,1.13.38c.23.25.35.58.35.98v.39c0,.4-.12.73-.35.98-.23.25-.61.38-1.13.38ZM24.58,71.53h2.41v15.56h-2.41v-15.56Z"/>
      <path class="cls-1" d="M32.12,87.09v-15.56h2.41v2.87h.15c.28-.74.78-1.41,1.51-1.99.72-.58,1.72-.88,2.99-.88h.93v2.41h-1.42c-1.31,0-2.33.25-3.06.74-.73.49-1.1,1.11-1.1,1.85v10.56h-2.41Z"/>
      <path class="cls-1" d="M48.89,87.46c-1.07,0-2.03-.19-2.88-.57-.85-.38-1.59-.93-2.2-1.64-.61-.71-1.09-1.57-1.42-2.56s-.5-2.12-.5-3.36.17-2.34.5-3.35c.33-1,.8-1.86,1.42-2.58.61-.71,1.35-1.26,2.2-1.64s1.81-.57,2.88-.57,1.98.19,2.81.57c.82.38,1.53.91,2.11,1.58s1.03,1.47,1.34,2.39c.31.92.47,1.93.47,3.04v1.14h-11.19v.72c0,.66.11,1.28.32,1.85.21.57.51,1.07.9,1.49.39.42.88.75,1.45,1,.57.24,1.22.36,1.95.36.98,0,1.84-.23,2.58-.69.73-.46,1.3-1.13,1.7-1.99l1.72,1.24c-.5,1.07-1.29,1.94-2.35,2.59-1.07.66-2.33.99-3.8.99ZM48.89,73.19c-.66,0-1.27.11-1.81.34-.54.23-1.01.55-1.4.97-.39.42-.7.91-.92,1.48-.22.57-.33,1.19-.33,1.87v.21h8.59v-.33c0-1.38-.38-2.48-1.13-3.31-.75-.83-1.75-1.24-3-1.24Z"/>
      <path class="cls-1" d="M60.8,67.88c-.52,0-.9-.13-1.13-.38s-.35-.58-.35-.98v-.39c0-.4.12-.73.35-.98s.61-.38,1.13-.38.9.13,1.13.38c.23.25.35.58.35.98v.39c0,.4-.12.73-.35.98-.23.25-.61.38-1.13.38ZM59.59,71.53h2.41v15.56h-2.41v-15.56Z"/>
      <path class="cls-1" d="M70.57,87.09c-.84,0-1.48-.24-1.92-.71-.43-.47-.65-1.09-.65-1.85v-10.86h-2.56v-2.14h1.45c.52,0,.88-.11,1.07-.32.19-.21.29-.58.29-1.1v-2.9h2.17v4.31h3.41v2.14h-3.41v11.28h3.17v2.14h-3.02Z"/>
      <path class="cls-1" d="M83.48,87.46c-1.04,0-2-.19-2.87-.57-.86-.38-1.6-.93-2.22-1.64-.61-.71-1.09-1.57-1.43-2.56-.34-1-.51-2.12-.51-3.36s.17-2.34.51-3.35c.34-1,.82-1.86,1.43-2.58.61-.71,1.35-1.26,2.22-1.64s1.82-.57,2.87-.57,2,.19,2.85.57c.85.38,1.59.93,2.22,1.64.62.71,1.11,1.57,1.45,2.58.34,1.01.51,2.12.51,3.35s-.17,2.37-.51,3.36-.82,1.85-1.45,2.56c-.62.71-1.36,1.26-2.22,1.64-.86.38-1.8.57-2.85.57ZM83.48,85.31c1.31,0,2.37-.4,3.2-1.21.82-.8,1.24-2.03,1.24-3.68v-2.23c0-1.65-.41-2.88-1.24-3.68-.82-.8-1.89-1.21-3.2-1.21s-2.37.4-3.2,1.21c-.83.8-1.24,2.03-1.24,3.68v2.23c0,1.65.41,2.88,1.24,3.68.82.8,1.89,1.21,3.2,1.21Z"/>
      <path class="cls-1" d="M7.93,106.52l-2.02-4.22h-.09v14.17H1.51v-21.05h5.01l5.76,9.95,2.02,4.22h.09v-14.17h4.31v21.05h-5.01l-5.76-9.95Z"/>
      <path class="cls-1" d="M31.25,116.83c-1.07,0-2.03-.19-2.88-.57-.85-.38-1.59-.93-2.2-1.64-.61-.71-1.09-1.57-1.42-2.56s-.5-2.12-.5-3.36.17-2.34.5-3.35c.33-1,.8-1.86,1.42-2.58.61-.71,1.35-1.26,2.2-1.64s1.81-.57,2.88-.57,1.98.19,2.81.57c.82.38,1.53.91,2.11,1.58s1.03,1.47,1.34,2.39c.31.92.47,1.93.47,3.04v1.14h-11.19v.72c0,.66.11,1.28.32,1.85.21.57.51,1.07.9,1.49.39.42.88.75,1.45,1,.57.24,1.22.36,1.95.36.98,0,1.84-.23,2.58-.69.73-.46,1.3-1.13,1.7-1.99l1.72,1.24c-.5,1.07-1.29,1.94-2.35,2.59-1.07.66-2.33.99-3.8.99ZM31.25,102.57c-.66,0-1.27.11-1.81.34-.54.23-1.01.55-1.4.97-.39.42-.7.91-.92,1.48-.22.57-.33,1.19-.33,1.87v.21h8.59v-.33c0-1.38-.38-2.48-1.13-3.31-.75-.83-1.75-1.24-3-1.24Z"/>
      <path class="cls-1" d="M55.07,118.21c0,1.6-.63,2.78-1.88,3.53-1.26.75-3.14,1.13-5.65,1.13s-4.18-.33-5.25-.99c-1.07-.66-1.6-1.61-1.6-2.83,0-.84.22-1.5.66-1.97.44-.47,1.05-.82,1.81-1.04v-.33c-.92-.44-1.39-1.16-1.39-2.16,0-.78.25-1.38.75-1.79.5-.41,1.15-.72,1.93-.92v-.12c-.92-.44-1.64-1.08-2.16-1.91s-.77-1.78-.77-2.87c0-.79.14-1.51.42-2.18.28-.67.68-1.23,1.19-1.71s1.13-.84,1.84-1.1c.71-.26,1.51-.39,2.4-.39,1.11,0,2.09.2,2.96.6v-.27c0-.61.14-1.11.42-1.51.28-.4.74-.6,1.39-.6h2.32v2.14h-2.96v1c.56.48,1,1.06,1.31,1.74.31.68.47,1.44.47,2.28,0,.79-.14,1.51-.42,2.18-.28.67-.68,1.24-1.19,1.71s-1.13.84-1.85,1.1c-.72.26-1.53.39-2.41.39-.5,0-1.01-.05-1.51-.15-.52.14-1,.35-1.42.62-.42.27-.63.65-.63,1.13s.22.77.66.93c.44.16,1.02.24,1.72.24h3.32c1.93,0,3.33.37,4.21,1.1s1.31,1.74,1.31,3.02ZM52.81,118.37c0-.62-.24-1.12-.71-1.49-.47-.37-1.31-.56-2.52-.56h-5.19c-.97.44-1.45,1.15-1.45,2.11,0,.68.26,1.27.77,1.75.51.48,1.38.72,2.61.72h2.23c1.35,0,2.39-.21,3.14-.63.74-.42,1.12-1.06,1.12-1.9ZM47.41,109.38c1.03,0,1.84-.25,2.44-.74.6-.5.9-1.26.9-2.29v-.85c0-1.03-.3-1.79-.9-2.29-.6-.49-1.42-.74-2.44-.74s-1.84.25-2.44.74c-.6.5-.9,1.26-.9,2.29v.85c0,1.03.3,1.79.9,2.29.6.49,1.42.74,2.44.74Z"/>
      <path class="cls-1" d="M63.58,116.83c-1.04,0-2-.19-2.87-.57-.86-.38-1.6-.93-2.22-1.64-.61-.71-1.09-1.57-1.43-2.56-.34-1-.51-2.12-.51-3.36s.17-2.34.51-3.35c.34-1,.82-1.86,1.43-2.58.61-.71,1.35-1.26,2.22-1.64s1.82-.57,2.87-.57,2,.19,2.85.57c.85.38,1.59.93,2.22,1.64.62.71,1.11,1.57,1.45,2.58.34,1.01.51,2.12.51,3.35s-.17,2.37-.51,3.36-.82,1.85-1.45,2.56c-.62.71-1.36,1.26-2.22,1.64-.86.38-1.8.57-2.85.57ZM63.58,114.69c1.31,0,2.37-.4,3.2-1.21.82-.8,1.24-2.03,1.24-3.68v-2.23c0-1.65-.41-2.88-1.24-3.68-.82-.8-1.89-1.21-3.2-1.21s-2.37.4-3.2,1.21c-.83.8-1.24,2.03-1.24,3.68v2.23c0,1.65.41,2.88,1.24,3.68.82.8,1.89,1.21,3.2,1.21ZM63.82,98.83l-1.57-.72,2.56-5.13,2.2,1.06-3.2,4.79Z"/>
      <path class="cls-1" d="M80.38,116.83c-1.09,0-2.06-.19-2.93-.57-.86-.38-1.59-.92-2.19-1.63-.59-.7-1.05-1.56-1.36-2.56-.31-1.01-.47-2.13-.47-3.38s.16-2.37.47-3.38c.31-1,.76-1.86,1.36-2.56.59-.7,1.32-1.25,2.19-1.63s1.84-.57,2.93-.57c1.55,0,2.79.34,3.72,1.01.93.67,1.63,1.55,2.1,2.64l-2.02,1.03c-.28-.8-.74-1.43-1.39-1.87-.64-.44-1.45-.66-2.41-.66-.72,0-1.36.12-1.9.35-.54.23-1,.55-1.36.96-.36.41-.63.9-.81,1.48-.18.57-.27,1.2-.27,1.88v2.65c0,1.37.37,2.49,1.1,3.36.73.87,1.81,1.31,3.24,1.31,1.95,0,3.36-.9,4.22-2.71l1.75,1.18c-.5,1.13-1.25,2.02-2.25,2.68s-2.24,1-3.72,1Z"/>
      <path class="cls-1" d="M90.96,97.26c-.52,0-.9-.13-1.13-.38s-.35-.58-.35-.98v-.39c0-.4.12-.73.35-.98s.61-.38,1.13-.38.9.13,1.13.38c.23.25.35.58.35.98v.39c0,.4-.12.73-.35.98-.23.25-.61.38-1.13.38ZM89.75,100.91h2.41v15.56h-2.41v-15.56Z"/>
      <path class="cls-1" d="M103.17,116.83c-1.04,0-2-.19-2.87-.57-.86-.38-1.6-.93-2.22-1.64-.61-.71-1.09-1.57-1.43-2.56-.34-1-.51-2.12-.51-3.36s.17-2.34.51-3.35c.34-1,.82-1.86,1.43-2.58.61-.71,1.35-1.26,2.22-1.64s1.82-.57,2.87-.57,2,.19,2.85.57c.85.38,1.59.93,2.22,1.64.62.71,1.11,1.57,1.45,2.58.34,1.01.51,2.12.51,3.35s-.17,2.37-.51,3.36-.82,1.85-1.45,2.56c-.62.71-1.36,1.26-2.22,1.64-.86.38-1.8.57-2.85.57ZM103.17,114.69c1.31,0,2.37-.4,3.2-1.21.82-.8,1.24-2.03,1.24-3.68v-2.23c0-1.65-.41-2.88-1.24-3.68-.82-.8-1.89-1.21-3.2-1.21s-2.37.4-3.2,1.21c-.83.8-1.24,2.03-1.24,3.68v2.23c0,1.65.41,2.88,1.24,3.68.82.8,1.89,1.21,3.2,1.21Z"/>
      <path class="cls-1" d="M118.86,116.83c-1.45,0-2.66-.28-3.63-.83-.98-.55-1.82-1.29-2.52-2.22l1.72-1.39c.6.76,1.28,1.35,2.02,1.76s1.61.62,2.59.62,1.83-.22,2.4-.66c.57-.44.86-1.07.86-1.87,0-.6-.2-1.12-.59-1.55-.39-.43-1.1-.73-2.13-.89l-1.24-.18c-.72-.1-1.39-.26-1.99-.47-.6-.21-1.13-.49-1.58-.84-.45-.35-.8-.79-1.06-1.31-.25-.52-.38-1.15-.38-1.87,0-.76.14-1.43.42-2.01.28-.57.67-1.05,1.16-1.43.49-.38,1.08-.67,1.76-.86.68-.19,1.42-.29,2.2-.29,1.27,0,2.33.22,3.18.66.85.44,1.6,1.06,2.25,1.84l-1.6,1.45c-.34-.48-.84-.92-1.51-1.31-.66-.39-1.5-.59-2.5-.59s-1.76.22-2.28.65c-.51.43-.77,1.02-.77,1.76s.26,1.32.77,1.66,1.25.59,2.22.75l1.21.18c1.73.26,2.96.76,3.68,1.49.72.73,1.09,1.69,1.09,2.88,0,1.51-.51,2.69-1.54,3.56-1.03.86-2.43,1.3-4.22,1.3Z"/>
      <path class="cls-1" d="M10.28,128.87v16.98h-4.58v-16.98H0v-4.07h15.98v4.07h-5.7Z"/>
      <path class="cls-1" d="M27.63,146.21c-1.07,0-2.03-.19-2.88-.57-.85-.38-1.59-.93-2.2-1.64-.61-.71-1.09-1.57-1.42-2.56s-.5-2.12-.5-3.36.17-2.34.5-3.35c.33-1,.8-1.86,1.42-2.58.61-.71,1.35-1.26,2.2-1.64s1.81-.57,2.88-.57,1.98.19,2.81.57c.82.38,1.53.91,2.11,1.58s1.03,1.47,1.34,2.39c.31.92.47,1.93.47,3.04v1.14h-11.19v.72c0,.66.11,1.28.32,1.85.21.57.51,1.07.9,1.49.39.42.88.75,1.45,1,.57.24,1.22.36,1.95.36.98,0,1.84-.23,2.58-.69.73-.46,1.3-1.13,1.7-1.99l1.72,1.24c-.5,1.07-1.29,1.94-2.35,2.59-1.07.66-2.33.99-3.8.99ZM27.63,131.95c-.66,0-1.27.11-1.81.34-.54.23-1.01.55-1.4.97-.39.42-.7.91-.92,1.48-.22.57-.33,1.19-.33,1.87v.21h8.59v-.33c0-1.38-.38-2.48-1.13-3.31-.75-.83-1.75-1.24-3-1.24Z"/>
      <path class="cls-1" d="M44.12,146.21c-1.09,0-2.06-.19-2.93-.57-.86-.38-1.59-.92-2.19-1.63-.59-.7-1.05-1.56-1.36-2.56-.31-1.01-.47-2.13-.47-3.38s.16-2.37.47-3.38c.31-1,.76-1.86,1.36-2.56.59-.7,1.32-1.25,2.19-1.63s1.84-.57,2.93-.57c1.55,0,2.79.34,3.72,1.01.93.67,1.63,1.55,2.1,2.64l-2.02,1.03c-.28-.8-.74-1.43-1.39-1.87-.64-.44-1.45-.66-2.41-.66-.72,0-1.36.12-1.9.35-.54.23-1,.55-1.36.96-.36.41-.63.9-.81,1.48-.18.57-.27,1.2-.27,1.88v2.65c0,1.37.37,2.49,1.1,3.36.73.87,1.81,1.31,3.24,1.31,1.95,0,3.36-.9,4.22-2.71l1.75,1.18c-.5,1.13-1.25,2.02-2.25,2.68s-2.24,1-3.72,1Z"/>
      <path class="cls-1" d="M53.5,145.85v-15.56h2.41v2.5h.12c.38-.88.92-1.57,1.61-2.09.69-.52,1.62-.78,2.79-.78,1.61,0,2.88.52,3.82,1.55.93,1.04,1.4,2.5,1.4,4.39v9.98h-2.41v-9.58c0-2.8-1.18-4.2-3.53-4.2-.48,0-.95.06-1.4.18-.45.12-.86.3-1.22.54-.36.24-.65.55-.86.92-.21.37-.32.81-.32,1.31v10.82h-2.41Z"/>
      <path class="cls-1" d="M76.51,146.21c-1.04,0-2-.19-2.87-.57-.86-.38-1.6-.93-2.22-1.64-.61-.71-1.09-1.57-1.43-2.56-.34-1-.51-2.12-.51-3.36s.17-2.34.51-3.35c.34-1,.82-1.86,1.43-2.58.61-.71,1.35-1.26,2.22-1.64s1.82-.57,2.87-.57,2,.19,2.85.57c.85.38,1.59.93,2.22,1.64.62.71,1.11,1.57,1.45,2.58.34,1.01.51,2.12.51,3.35s-.17,2.37-.51,3.36-.82,1.85-1.45,2.56c-.62.71-1.36,1.26-2.22,1.64-.86.38-1.8.57-2.85.57ZM76.51,144.07c1.31,0,2.37-.4,3.2-1.21.82-.8,1.24-2.03,1.24-3.68v-2.23c0-1.65-.41-2.88-1.24-3.68-.82-.8-1.89-1.21-3.2-1.21s-2.37.4-3.2,1.21c-.83.8-1.24,2.03-1.24,3.68v2.23c0,1.65.41,2.88,1.24,3.68.82.8,1.89,1.21,3.2,1.21Z"/>
      <path class="cls-1" d="M90.09,145.85c-.84,0-1.48-.24-1.92-.71-.43-.47-.65-1.07-.65-1.79v-19.81h2.41v20.18h2.29v2.14h-2.14Z"/>
      <path class="cls-1" d="M101.61,146.21c-1.04,0-2-.19-2.87-.57-.86-.38-1.6-.93-2.22-1.64-.61-.71-1.09-1.57-1.43-2.56-.34-1-.51-2.12-.51-3.36s.17-2.34.51-3.35c.34-1,.82-1.86,1.43-2.58.61-.71,1.35-1.26,2.22-1.64s1.82-.57,2.87-.57,2,.19,2.85.57c.85.38,1.59.93,2.22,1.64.62.71,1.11,1.57,1.45,2.58.34,1.01.51,2.12.51,3.35s-.17,2.37-.51,3.36-.82,1.85-1.45,2.56c-.62.71-1.36,1.26-2.22,1.64-.86.38-1.8.57-2.85.57ZM101.61,144.07c1.31,0,2.37-.4,3.2-1.21.82-.8,1.24-2.03,1.24-3.68v-2.23c0-1.65-.41-2.88-1.24-3.68-.82-.8-1.89-1.21-3.2-1.21s-2.37.4-3.2,1.21c-.83.8-1.24,2.03-1.24,3.68v2.23c0,1.65.41,2.88,1.24,3.68.82.8,1.89,1.21,3.2,1.21Z"/>
      <path class="cls-1" d="M125.73,147.59c0,1.6-.63,2.78-1.88,3.53-1.26.75-3.14,1.13-5.65,1.13s-4.18-.33-5.25-.99c-1.07-.66-1.6-1.61-1.6-2.83,0-.84.22-1.5.66-1.97.44-.47,1.05-.82,1.81-1.04v-.33c-.92-.44-1.39-1.16-1.39-2.16,0-.78.25-1.38.75-1.79.5-.41,1.15-.72,1.93-.92v-.12c-.92-.44-1.64-1.08-2.16-1.91s-.77-1.78-.77-2.87c0-.79.14-1.51.42-2.18.28-.67.68-1.23,1.19-1.71s1.13-.84,1.84-1.1c.71-.26,1.51-.39,2.4-.39,1.11,0,2.09.2,2.96.6v-.27c0-.61.14-1.11.42-1.51.28-.4.74-.6,1.39-.6h2.32v2.14h-2.96v1c.56.48,1,1.06,1.31,1.74.31.68.47,1.44.47,2.28,0,.79-.14,1.51-.42,2.18-.28.67-.68,1.24-1.19,1.71s-1.13.84-1.85,1.1c-.72.26-1.53.39-2.41.39-.5,0-1.01-.05-1.51-.15-.52.14-1,.35-1.42.62-.42.27-.63.65-.63,1.13s.22.77.66.93c.44.16,1.02.24,1.72.24h3.32c1.93,0,3.33.37,4.21,1.1s1.31,1.74,1.31,3.02ZM123.47,147.75c0-.62-.24-1.12-.71-1.49-.47-.37-1.31-.56-2.52-.56h-5.19c-.97.44-1.45,1.15-1.45,2.11,0,.68.26,1.27.77,1.75.51.48,1.38.72,2.61.72h2.23c1.35,0,2.39-.21,3.14-.63.74-.42,1.12-1.06,1.12-1.9ZM118.07,138.76c1.03,0,1.84-.25,2.44-.74.6-.5.9-1.26.9-2.29v-.85c0-1.03-.3-1.79-.9-2.29-.6-.49-1.42-.74-2.44-.74s-1.84.25-2.44.74c-.6.5-.9,1.26-.9,2.29v.85c0,1.03.3,1.79.9,2.29.6.49,1.42.74,2.44.74Z"/>
      <path class="cls-1" d="M129.74,126.64c-.52,0-.9-.13-1.13-.38s-.35-.58-.35-.98v-.39c0-.4.12-.73.35-.98s.61-.38,1.13-.38.9.13,1.13.38c.23.25.35.58.35.98v.39c0,.4-.12.73-.35.98-.23.25-.61.38-1.13.38ZM128.54,130.29h2.41v15.56h-2.41v-15.56Z"/>
      <path class="cls-1" d="M147.39,145.85c-.9,0-1.55-.24-1.95-.72-.39-.48-.64-1.09-.74-1.81h-.15c-.34.96-.9,1.69-1.69,2.17s-1.72.72-2.8.72c-1.65,0-2.93-.42-3.85-1.27s-1.37-1.99-1.37-3.44.54-2.59,1.61-3.38c1.08-.78,2.75-1.18,5.02-1.18h3.08v-1.54c0-1.11-.3-1.95-.9-2.53-.6-.58-1.53-.87-2.77-.87-.95,0-1.73.21-2.37.63-.63.42-1.16.99-1.58,1.69l-1.45-1.36c.42-.84,1.1-1.56,2.02-2.16.92-.59,2.09-.89,3.5-.89,1.89,0,3.36.46,4.4,1.38,1.04.92,1.57,2.21,1.57,3.85v8.55h1.78v2.14h-1.36ZM140.45,144.16c.6,0,1.16-.07,1.66-.21.5-.14.93-.34,1.3-.6.36-.26.64-.56.84-.9.2-.34.3-.71.3-1.12v-2.56h-3.2c-1.39,0-2.4.2-3.03.6-.63.4-.95.99-.95,1.75v.63c0,.76.28,1.36.83,1.78s1.3.63,2.25.63Z"/>
    </g>
  </g>
</svg>