<?xml version="1.0" encoding="UTF-8"?>
<svg id="Camada_2" xmlns="http://www.w3.org/2000/svg" viewBox="0 0 6555.81 1785.89">
  <defs>
    <style>
      .cls-1 {
        fill: #fff;
      }

      .cls-2 {
        fill: #96165c;
      }
    </style>
  </defs>
  <g id="BACKGROUND">
    <g>
      <g>
        <path class="cls-2" d="M3831.88,378.33c-22.33,0-42.45-3.54-60.37-10.61-17.92-7.08-33.18-17.61-45.76-31.61-12.58-13.98-22.33-31.44-29.24-52.36-6.91-20.9-10.37-45.35-10.37-73.34s3.46-52.28,10.37-73.82c6.91-21.53,16.66-39.62,29.24-54.25,12.58-14.62,27.84-25.71,45.76-33.25,17.92-7.55,38.04-11.32,60.37-11.32,30.49,0,55.66,6.21,75.46,18.63,19.81,12.42,35.69,32,47.65,58.73l-61.8,32.07c-4.41-13.83-11.25-24.92-20.52-33.25-9.28-8.33-22.87-12.51-40.8-12.51-21.07,0-37.97,6.85-50.71,20.52-12.74,13.68-19.11,33.57-19.11,59.66v52.83c0,26.11,6.37,45.99,19.11,59.67,12.74,13.68,29.64,20.52,50.71,20.52,17.6,0,31.67-4.79,42.22-14.39,10.53-9.58,18.3-21.15,23.34-34.67l58.49,33.97c-12.26,25.16-28.38,44.57-48.34,58.25-19.97,13.68-45.22,20.52-75.71,20.52Z"/>
        <path class="cls-2" d="M4141.3,378.33c-21.69,0-41.5-3.62-59.42-10.85-17.92-7.23-33.18-18-45.76-32.31-12.58-14.3-22.33-32.07-29.24-53.29-6.91-21.23-10.37-45.83-10.37-73.82s3.46-52.59,10.37-73.82c6.91-21.23,16.66-38.99,29.24-53.3,12.58-14.31,27.84-25.07,45.76-32.31,17.92-7.23,37.74-10.84,59.42-10.84s41.51,3.62,59.44,10.84c17.92,7.24,33.17,18,45.75,32.31,12.58,14.31,22.33,32.08,29.24,53.3,6.91,21.23,10.38,45.83,10.38,73.82s-3.47,52.59-10.38,73.82c-6.91,21.23-16.66,39-29.24,53.29-12.58,14.31-27.82,25.08-45.75,32.31-17.92,7.23-37.74,10.85-59.44,10.85ZM4141.3,314.65c21.7,0,38.6-7.07,50.71-21.23,12.1-14.15,18.16-34.43,18.16-60.84v-49.06c0-26.42-6.06-46.7-18.16-60.85-12.11-14.15-29.01-21.23-50.71-21.23s-38.6,7.08-50.7,21.23c-12.11,14.15-18.17,34.43-18.17,60.85v49.06c0,26.41,6.06,46.69,18.17,60.84,12.1,14.15,29.01,21.23,50.7,21.23Z"/>
        <path class="cls-2" d="M4455.91,217.02l-31.6-66.03h-1.42v221.69h-67.45V43.45h78.3l90.1,155.65,31.6,66.03h1.41V43.45h67.45v329.23h-78.3l-90.09-155.65Z"/>
        <path class="cls-2" d="M4915.32,320.31h-2.36c-2.53,16.67-11.01,30.5-25.48,41.51-14.47,11-34.12,16.51-58.95,16.51-18.88,0-36.48-3.62-52.83-10.85-16.36-7.23-30.65-17.92-42.92-32.07-12.26-14.15-21.86-31.76-28.77-52.83-6.91-21.06-10.37-45.43-10.37-73.11s3.6-52.2,10.84-73.58c7.23-21.38,17.38-39.3,30.43-53.77,13.05-14.46,28.69-25.47,46.93-33.01,18.23-7.55,38.51-11.32,60.84-11.32,29.55,0,55.03,6.36,76.41,19.1,21.38,12.73,38.2,31.83,50.48,57.31l-58.49,33.49c-5.04-12.89-12.9-23.82-23.59-32.79-10.69-8.96-25.63-13.44-44.81-13.44-22.33,0-40.09,6.45-53.3,19.34-13.21,12.89-19.81,33.17-19.81,60.84v52.83c0,27.36,6.6,47.57,19.81,60.62,13.21,13.05,30.97,19.57,53.3,19.57,8.8,0,17.13-1.02,25-3.07,7.86-2.04,14.78-5.18,20.76-9.43,5.96-4.25,10.6-9.35,13.91-15.33,3.29-5.97,4.95-13.04,4.95-21.23v-16.51h-61.31v-59.9h129.71v183.48h-60.37v-52.36Z"/>
        <path class="cls-2" d="M5126.62,372.67h-71.69V43.45h156.13c15.1,0,28.77,2.52,41.03,7.54,12.27,5.04,22.73,12.19,31.37,21.47,8.65,9.28,15.33,20.36,20.05,33.25,4.72,12.9,7.09,27.21,7.09,42.93,0,22.33-4.96,41.82-14.86,58.49-9.91,16.67-24.92,28.77-45.04,36.32l64.62,129.24h-79.72l-57.55-120.75h-51.41v120.75ZM5202.09,191.55c10.69,0,19.11-2.75,25.23-8.25,6.14-5.5,9.2-13.6,9.2-24.29v-20.76c0-10.68-3.06-18.78-9.2-24.29-6.12-5.5-14.54-8.26-25.23-8.26h-75.47v85.85h75.47Z"/>
        <path class="cls-2" d="M5382.28,372.67V43.45h224.04v63.68h-152.35v66.97h130.66v63.68h-130.66v71.23h152.35v63.68h-224.04Z"/>
        <path class="cls-2" d="M5784.62,378.33c-28.94,0-53.46-4.96-73.58-14.87-20.12-9.92-37.27-22.76-51.41-38.5l47.17-47.69c22.33,24.93,49.83,37.39,82.54,37.39,17.6,0,30.66-3.58,39.16-10.74,8.48-7.17,12.73-16.67,12.73-28.53,0-9.03-2.52-16.59-7.54-22.66-5.04-6.08-15.26-10.21-30.66-12.39l-32.54-4.21c-34.91-4.41-60.46-14.95-76.66-31.64-16.2-16.69-24.29-38.88-24.29-66.59,0-14.8,2.84-28.33,8.49-40.61,5.67-12.28,13.75-22.83,24.29-31.64,10.53-8.81,23.43-15.67,38.67-20.54,15.26-4.88,32.63-7.31,52.13-7.31,24.84,0,46.7,3.94,65.56,11.81,18.86,7.87,35.06,19.37,48.59,34.49l-47.65,48.19c-7.86-9.02-17.37-16.42-28.53-22.18-11.17-5.75-25.25-8.64-42.22-8.64-16.03,0-28,2.8-35.85,8.41-7.86,5.6-11.8,13.38-11.8,23.34,0,11.21,3.08,19.3,9.21,24.29,6.12,4.98,16.11,8.55,29.95,10.73l32.55,5.2c33.96,5.35,59.1,15.82,75.46,31.4,16.36,15.58,24.53,37.7,24.53,66.33,0,15.74-2.83,30.22-8.49,43.44-5.65,13.22-13.91,24.56-24.76,33.99-10.84,9.45-24.28,16.77-40.33,21.96-16.03,5.19-34.27,7.79-54.71,7.79Z"/>
        <path class="cls-2" d="M6081.78,378.33c-28.94,0-53.46-4.96-73.58-14.87-20.12-9.92-37.27-22.76-51.41-38.5l47.17-47.69c22.33,24.93,49.83,37.39,82.54,37.39,17.6,0,30.66-3.58,39.16-10.74,8.48-7.17,12.73-16.67,12.73-28.53,0-9.03-2.52-16.59-7.54-22.66-5.04-6.08-15.26-10.21-30.66-12.39l-32.54-4.21c-34.91-4.41-60.46-14.95-76.66-31.64-16.2-16.69-24.29-38.88-24.29-66.59,0-14.8,2.84-28.33,8.49-40.61,5.67-12.28,13.75-22.83,24.29-31.64,10.53-8.81,23.43-15.67,38.67-20.54,15.26-4.88,32.63-7.31,52.13-7.31,24.84,0,46.7,3.94,65.56,11.81,18.86,7.87,35.06,19.37,48.59,34.49l-47.65,48.19c-7.86-9.02-17.37-16.42-28.53-22.18-11.17-5.75-25.25-8.64-42.22-8.64-16.03,0-28,2.8-35.85,8.41-7.86,5.6-11.8,13.38-11.8,23.34,0,11.21,3.08,19.3,9.21,24.29,6.12,4.98,16.11,8.55,29.95,10.73l32.55,5.2c33.96,5.35,59.1,15.82,75.46,31.4,16.36,15.58,24.53,37.7,24.53,66.33,0,15.74-2.83,30.22-8.49,43.44-5.65,13.22-13.91,24.56-24.76,33.99-10.84,9.45-24.28,16.77-40.33,21.96-16.03,5.19-34.27,7.79-54.71,7.79Z"/>
        <path class="cls-2" d="M6411,378.33c-21.69,0-41.5-3.62-59.42-10.85-17.92-7.23-33.18-18-45.76-32.31-12.58-14.3-22.33-32.07-29.24-53.29-6.91-21.23-10.37-45.83-10.37-73.82s3.46-52.59,10.37-73.82c6.91-21.23,16.66-38.99,29.24-53.3,12.58-14.31,27.84-25.07,45.76-32.31,17.92-7.23,37.74-10.84,59.42-10.84s41.51,3.62,59.44,10.84c17.92,7.24,33.17,18,45.75,32.31,12.58,14.31,22.33,32.08,29.24,53.3,6.91,21.23,10.38,45.83,10.38,73.82s-3.47,52.59-10.38,73.82c-6.91,21.23-16.66,39-29.24,53.29-12.58,14.31-27.82,25.08-45.75,32.31-17.92,7.23-37.74,10.85-59.44,10.85ZM6411,314.65c21.7,0,38.6-7.07,50.71-21.23,12.1-14.15,18.16-34.43,18.16-60.84v-49.06c0-26.42-6.06-46.7-18.16-60.85-12.11-14.15-29.01-21.23-50.71-21.23s-38.6,7.08-50.7,21.23c-12.11,14.15-18.17,34.43-18.17,60.85v49.06c0,26.41,6.06,46.69,18.17,60.84,12.1,14.15,29.01,21.23,50.7,21.23Z"/>
      </g>
      <g>
        <path class="cls-1" d="M3686.14,567.78h400.79c70.12,0,134.12,11.18,192.06,33.53,57.88,22.35,107.18,55.61,147.79,99.8,40.66,44.21,72.14,99.58,94.5,166.12,22.35,66.54,33.56,144.02,33.56,232.4s-11.2,165.88-33.56,232.42c-22.35,66.54-53.84,121.91-94.5,166.1-40.61,44.21-89.91,77.5-147.79,99.83-57.93,22.35-121.93,33.53-192.06,33.53h-400.79V567.78ZM4086.93,1425.76c69.08,0,123.46-19.27,163.09-57.91,39.62-38.59,59.41-100.57,59.41-185.91v-164.59c0-85.34-19.79-147.3-59.41-185.94-39.62-38.59-94-57.91-163.09-57.91h-169.16v652.26h169.16Z"/>
        <path class="cls-1" d="M5009.7,1128.6l-102.1-213.35h-4.59v716.26h-217.91V567.78h253l291.04,502.91,102.15,213.35h4.54v-716.26h217.96v1063.73h-253l-291.09-502.91Z"/>
        <path class="cls-1" d="M6203.72,773.5v858.01h-231.63v-858.01h-288.03v-205.72h807.7v205.72h-288.03Z"/>
      </g>
    </g>
    <g>
      <path class="cls-2" d="M928.72,0c27.01,5.99,54.19,11.32,81.01,18.07,220.96,55.61,371.27,247.43,371.26,474.65-.02,240.67,2.44,481.4-2.27,721.99-4.21,215.17-99.99,384.53-279.3,504.16-75.84,50.6-160.51,74.13-254.95,65.15v-295.21h56.84v245.12c48.62-16.6,94.03-25.19,132.45-46.42,176.36-97.42,276.41-250.09,283.63-450.02,9.02-249.66,4.94-499.87,3.61-749.82-1.28-240.88-196.13-427.95-441.75-428.12-11.17,0-22.34,0-37.33,0V0C870.86,0,899.79,0,928.72,0Z"/>
      <path class="cls-2" d="M1650.28,0c26.99,6.01,54.15,11.35,80.95,18.12,220.89,55.76,370.86,247.2,370.89,474.82.03,240.65,2.81,481.38-2.73,721.91-5.33,231.58-111.67,408.36-313.77,524-70.23,40.19-142.69,52.25-219.85,44.45v-294.59h56.88v245.26c48.63-16.65,94.09-25.23,132.48-46.56,179.4-99.66,278.02-255.28,284.18-459.27,7.32-242.51-.36-485.44,4.3-728.07,5.19-270.29-229.26-446.09-446.13-440.53-10.13.26-20.27.03-33.98.03V0C1592.42,0,1621.35,0,1650.28,0Z"/>
      <path class="cls-2" d="M479.32,0c-.94,19.34-1.88,38.69-2.86,58.8-24.93,4.02-48.41,6.72-71.4,11.67C204.62,113.7,64.74,279.59,61.26,484.5c-3.32,195.18-4.06,390.47-1.74,585.66,2.49,209.58,171.02,387.96,383.49,411.94,11.06,1.25,22.06,3.02,33.17,4.56v57.97c-21.26-2.41-40.51-3.8-59.48-6.86C173.39,1498.5-.14,1295.33,0,1049.65c.1-177.67.64-355.34,1.11-533C1.82,243.37,161.45,53.55,431.21,4.87c3.81-.69,7.28-3.2,10.91-4.87,12.4,0,24.8,0,37.2,0Z"/>
      <path class="cls-2" d="M2958.91,1518.41c-89.45,1.44-169.92-11.81-244.2-50.91-160.07-84.26-246.93-214.91-247.19-398.23-.28-191.68.57-383.37,1.3-575.05.83-215.82,157.39-399.95,370.44-435.6,176.24-29.49,327.61,18.03,448.93,150.57,67.05,73.25,103.62,161.53,103.99,261.11.98,266.45,2.56,532.96-2.03,799.34-3.71,214.98-175.49,433.71-371.87,485.3-18.06,4.75-36.67,7.44-59.37,11.94v-248.48Z"/>
    </g>
  </g>
</svg>