<?xml version="1.0" encoding="UTF-8"?>
<svg id="Camada_2" xmlns="http://www.w3.org/2000/svg" viewBox="0 0 5443.84 1356.63">
  <defs>
    <style>
      .cls-1 {
        fill: #fff;
      }

      .cls-2 {
        fill: #a51261;
      }
    </style>
  </defs>
  <g id="Camada_1-2" data-name="Camada_1">
    <g>
      <g>
        <g>
          <path class="cls-2" d="M1702.33,341.24c-18.48,0-35.12-2.93-49.96-8.78-14.83-5.86-27.46-14.57-37.86-26.15-10.41-11.57-18.48-26.01-24.2-43.32-5.72-17.3-8.58-37.52-8.58-60.68s2.86-43.25,8.58-61.08c5.72-17.82,13.79-32.79,24.2-44.88,10.41-12.1,23.03-21.27,37.86-27.51,14.83-6.25,31.48-9.37,49.96-9.37,25.23,0,46.05,5.14,62.43,15.41,16.39,10.28,29.53,26.48,39.43,48.59l-51.13,26.53c-3.65-11.44-9.31-20.62-16.97-27.51-7.68-6.89-18.93-10.35-33.76-10.35-17.44,0-31.42,5.66-41.96,16.98-10.54,11.32-15.81,27.78-15.81,49.37v43.71c0,21.6,5.27,38.06,15.81,49.37,10.54,11.32,24.52,16.97,41.96,16.97,14.56,0,26.21-3.96,34.93-11.9,8.71-7.93,15.15-17.5,19.31-28.69l48.39,28.1c-10.14,20.82-23.48,36.88-40,48.2-16.53,11.32-37.41,16.97-62.64,16.97Z"/>
          <path class="cls-2" d="M1958.34,341.24c-17.94,0-34.34-2.99-49.17-8.98-14.83-5.98-27.46-14.89-37.86-26.73-10.41-11.83-18.48-26.53-24.2-44.1-5.72-17.56-8.58-37.92-8.58-61.08s2.86-43.52,8.58-61.08c5.72-17.56,13.79-32.26,24.2-44.1,10.41-11.84,23.03-20.74,37.86-26.73,14.83-5.98,31.22-8.97,49.17-8.97s34.35,2.99,49.18,8.97c14.83,5.99,27.44,14.9,37.85,26.73,10.41,11.84,18.48,26.54,24.2,44.1,5.72,17.56,8.59,37.92,8.59,61.08s-2.87,43.52-8.59,61.08c-5.72,17.56-13.79,32.27-24.2,44.1-10.41,11.84-23.02,20.76-37.85,26.73-14.83,5.99-31.22,8.98-49.18,8.98ZM1958.34,288.55c17.96,0,31.94-5.85,41.96-17.56,10.01-11.71,15.02-28.49,15.02-50.34v-40.59c0-21.86-5.02-38.64-15.02-50.35-10.02-11.7-24-17.56-41.96-17.56s-31.94,5.86-41.95,17.56c-10.02,11.71-15.04,28.49-15.04,50.35v40.59c0,21.85,5.02,38.63,15.04,50.34,10.01,11.71,24,17.56,41.95,17.56Z"/>
          <path class="cls-2" d="M2218.66,207.77l-26.15-54.64h-1.18v183.43h-55.81V64.15h64.79l74.55,128.79,26.15,54.64h1.16V64.15h55.81v272.41h-64.79l-74.54-128.79Z"/>
          <path class="cls-2" d="M2598.78,293.24h-1.95c-2.1,13.79-9.11,25.24-21.08,34.34-11.97,9.11-28.23,13.66-48.78,13.66-15.62,0-30.18-2.99-43.72-8.98-13.53-5.98-25.36-14.83-35.51-26.53-10.14-11.71-18.09-26.28-23.81-43.72-5.72-17.42-8.58-37.59-8.58-60.49s2.98-43.19,8.97-60.88c5.99-17.69,14.38-32.52,25.18-44.49,10.8-11.96,23.74-21.08,38.83-27.32,15.08-6.25,31.87-9.37,50.34-9.37,24.45,0,45.53,5.26,63.22,15.81,17.69,10.54,31.61,26.34,41.76,47.42l-48.39,27.71c-4.17-10.67-10.67-19.71-19.52-27.13-8.84-7.42-21.2-11.12-37.08-11.12-18.48,0-33.17,5.34-44.1,16.01-10.93,10.67-16.39,27.45-16.39,50.34v43.71c0,22.64,5.46,39.36,16.39,50.16,10.93,10.8,25.63,16.19,44.1,16.19,7.28,0,14.18-.84,20.68-2.54,6.51-1.68,12.23-4.29,17.18-7.8,4.93-3.51,8.77-7.74,11.51-12.69,2.73-4.94,4.1-10.79,4.1-17.56v-13.66h-50.73v-49.56h107.33v151.82h-49.96v-43.32Z"/>
          <path class="cls-2" d="M2773.62,336.56h-59.32V64.15h129.18c12.49,0,23.81,2.08,33.95,6.24,10.15,4.17,18.8,10.09,25.95,17.76,7.16,7.68,12.69,16.85,16.59,27.51,3.9,10.67,5.86,22.51,5.86,35.52,0,18.48-4.11,34.6-12.3,48.39-8.2,13.79-20.62,23.81-37.27,30.05l53.47,106.94h-65.96l-47.62-99.91h-42.54v99.91ZM2836.06,186.69c8.84,0,15.81-2.27,20.88-6.83,5.08-4.55,7.61-11.26,7.61-20.1v-17.17c0-8.84-2.53-15.54-7.61-20.09-5.06-4.55-12.03-6.83-20.88-6.83h-62.45v71.03h62.45Z"/>
          <path class="cls-2" d="M2985.15,336.56V64.15h185.38v52.69h-126.06v55.41h108.11v52.69h-108.11v58.93h126.06v52.69h-185.38Z"/>
          <path class="cls-2" d="M3318.06,341.24c-23.94,0-44.24-4.1-60.88-12.3-16.65-8.21-30.84-18.83-42.54-31.86l39.03-39.46c18.48,20.63,41.23,30.94,68.3,30.94,14.56,0,25.37-2.96,32.4-8.89,7.02-5.93,10.53-13.79,10.53-23.6,0-7.48-2.08-13.73-6.24-18.75-4.17-5.03-12.63-8.44-25.37-10.25l-26.92-3.48c-28.89-3.65-50.03-12.37-63.43-26.18-13.4-13.81-20.1-32.17-20.1-55.1,0-12.24,2.35-23.44,7.03-33.6,4.69-10.16,11.38-18.89,20.1-26.18,8.71-7.29,19.39-12.96,32-17,12.63-4.03,26.99-6.05,43.13-6.05,20.55,0,38.64,3.26,54.24,9.77,15.61,6.51,29.01,16.02,40.2,28.53l-39.43,39.87c-6.51-7.46-14.37-13.58-23.6-18.35-9.24-4.76-20.89-7.15-34.93-7.15-13.27,0-23.17,2.32-29.66,6.95-6.51,4.63-9.77,11.07-9.77,19.31,0,9.27,2.54,15.97,7.62,20.09,5.06,4.12,13.33,7.08,24.78,8.88l26.93,4.3c28.1,4.43,48.9,13.09,62.43,25.98,13.53,12.89,20.29,31.19,20.29,54.89,0,13.02-2.34,25-7.03,35.94-4.68,10.94-11.51,20.32-20.49,28.13-8.97,7.82-20.09,13.87-33.37,18.17-13.27,4.3-28.35,6.45-45.27,6.45Z"/>
          <path class="cls-2" d="M3563.93,341.24c-23.94,0-44.24-4.1-60.88-12.3-16.65-8.21-30.84-18.83-42.54-31.86l39.03-39.46c18.48,20.63,41.23,30.94,68.3,30.94,14.56,0,25.37-2.96,32.4-8.89,7.02-5.93,10.53-13.79,10.53-23.6,0-7.48-2.08-13.73-6.24-18.75-4.17-5.03-12.63-8.44-25.37-10.25l-26.92-3.48c-28.89-3.65-50.03-12.37-63.43-26.18-13.4-13.81-20.1-32.17-20.1-55.1,0-12.24,2.35-23.44,7.03-33.6,4.69-10.16,11.38-18.89,20.1-26.18,8.71-7.29,19.39-12.96,32-17,12.63-4.03,26.99-6.05,43.13-6.05,20.55,0,38.64,3.26,54.24,9.77,15.61,6.51,29.01,16.02,40.2,28.53l-39.43,39.87c-6.51-7.46-14.37-13.58-23.6-18.35-9.24-4.76-20.89-7.15-34.93-7.15-13.27,0-23.17,2.32-29.66,6.95-6.51,4.63-9.77,11.07-9.77,19.31,0,9.27,2.54,15.97,7.62,20.09,5.06,4.12,13.33,7.08,24.78,8.88l26.93,4.3c28.1,4.43,48.9,13.09,62.43,25.98,13.53,12.89,20.29,31.19,20.29,54.89,0,13.02-2.34,25-7.03,35.94-4.68,10.94-11.51,20.32-20.49,28.13-8.97,7.82-20.09,13.87-33.37,18.17-13.27,4.3-28.35,6.45-45.27,6.45Z"/>
          <path class="cls-2" d="M3836.34,341.24c-17.94,0-34.34-2.99-49.17-8.98-14.83-5.98-27.46-14.89-37.86-26.73-10.41-11.83-18.48-26.53-24.2-44.1-5.72-17.56-8.58-37.92-8.58-61.08s2.86-43.52,8.58-61.08c5.72-17.56,13.79-32.26,24.2-44.1,10.41-11.84,23.03-20.74,37.86-26.73,14.83-5.98,31.22-8.97,49.17-8.97s34.35,2.99,49.18,8.97c14.83,5.99,27.44,14.9,37.85,26.73,10.41,11.84,18.48,26.54,24.2,44.1,5.72,17.56,8.59,37.92,8.59,61.08s-2.87,43.52-8.59,61.08c-5.72,17.56-13.79,32.27-24.2,44.1-10.41,11.84-23.02,20.76-37.85,26.73-14.83,5.99-31.22,8.98-49.18,8.98ZM3836.34,288.55c17.96,0,31.94-5.85,41.96-17.56,10.01-11.71,15.02-28.49,15.02-50.34v-40.59c0-21.86-5.02-38.64-15.02-50.35-10.02-11.7-24-17.56-41.96-17.56s-31.94,5.86-41.95,17.56c-10.02,11.71-15.04,28.49-15.04,50.35v40.59c0,21.85,5.02,38.63,15.04,50.34,10.01,11.71,24,17.56,41.95,17.56Z"/>
        </g>
        <g>
          <path class="cls-2" d="M4160.12,107.53c-11.82,0-20.43-2.69-25.82-8.08-5.38-5.38-8.08-12.28-8.08-20.69v-8.67c0-8.41,2.69-15.31,8.08-20.69,5.38-5.38,14-8.08,25.82-8.08s20.43,2.7,25.82,8.08c5.38,5.38,8.08,12.28,8.08,20.69v8.67c0,8.41-2.69,15.31-8.08,20.69-5.38,5.39-14,8.08-25.82,8.08ZM4130.97,129.61h58.33v206.91h-58.33v-206.91Z"/>
          <path class="cls-2" d="M4365.86,341.24c-18.66,0-35.47-2.95-50.45-8.86-14.98-5.92-27.73-14.71-38.24-26.41-10.51-11.68-18.66-26.27-24.43-43.75-5.78-17.47-8.66-37.89-8.66-61.28s2.89-43.68,8.66-61.68c5.78-17.99,13.92-33.11,24.43-45.33,10.51-12.22,23.26-21.48,38.24-27.78,14.98-6.31,31.79-9.46,50.45-9.46,25.47,0,46.51,5.19,63.05,15.56,16.55,10.38,29.82,26.74,39.81,49.07l-51.63,26.8c-3.68-11.56-9.4-20.82-17.14-27.78-7.76-6.96-19.11-10.45-34.09-10.45-17.61,0-31.73,5.72-42.37,17.15-10.64,11.43-15.97,28.05-15.97,49.85v44.14c0,21.82,5.32,38.43,15.97,49.86,10.64,11.43,24.76,17.14,42.37,17.14,14.71,0,26.47-4,35.27-12.02,8.8-8.01,15.29-17.67,19.5-28.97l48.87,28.38c-10.24,21.02-23.71,37.24-40.39,48.67-16.69,11.43-37.78,17.14-63.26,17.14Z"/>
          <path class="cls-2" d="M4519.16,336.51V61.42h187.2v53.21h-127.3v55.96h109.18v53.21h-109.18v59.51h127.3v53.21h-187.2Z"/>
          <path class="cls-2" d="M4830.11,336.51l-88.67-275.09h60.69l40.99,132.03,21.68,86.31h1.19l20.89-86.31,40.99-132.03h58.72l-89.47,275.09h-67Z"/>
        </g>
        <g>
          <path class="cls-1" d="M1595.9,496.44h102.65c17.94,0,34.34,2.87,49.17,8.58,14.83,5.72,27.46,14.24,37.86,25.56,10.4,11.32,18.47,25.5,24.2,42.54,5.72,17.05,8.58,36.88,8.58,59.52s-2.86,42.48-8.58,59.51c-5.73,17.05-13.8,31.22-24.2,42.54-10.41,11.32-23.03,19.85-37.86,25.57-14.83,5.72-31.22,8.58-49.17,8.58h-102.65v-272.41ZM1698.55,716.16c17.69,0,31.61-4.94,41.75-14.83,10.15-9.89,15.22-25.76,15.22-47.61v-42.15c0-21.86-5.06-37.72-15.22-47.61-10.14-9.89-24.06-14.83-41.75-14.83h-43.33v167.03h43.33Z"/>
          <path class="cls-1" d="M1865.19,768.84v-47.22h35.12v-177.96h-35.12v-47.22h129.57v47.22h-35.12v177.96h35.12v47.22h-129.57Z"/>
          <path class="cls-1" d="M2111.45,768.84h-59.32v-272.41h129.18c12.49,0,23.81,2.08,33.95,6.24,10.15,4.17,18.8,10.09,25.95,17.76,7.16,7.68,12.69,16.85,16.59,27.51,3.9,10.67,5.86,22.51,5.86,35.52,0,18.48-4.11,34.6-12.3,48.39-8.2,13.79-20.62,23.81-37.27,30.05l53.47,106.94h-65.96l-47.62-99.91h-42.54v99.91ZM2173.9,618.98c8.84,0,15.81-2.27,20.88-6.83,5.08-4.55,7.61-11.26,7.61-20.1v-17.17c0-8.84-2.53-15.54-7.61-20.09-5.06-4.55-12.03-6.83-20.88-6.83h-62.45v71.03h62.45Z"/>
          <path class="cls-1" d="M2322.98,768.84v-272.41h185.38v52.69h-126.06v55.41h108.11v52.69h-108.11v58.93h126.06v52.69h-185.38Z"/>
          <path class="cls-1" d="M2557.15,768.84v-47.22h35.12v-177.96h-35.12v-47.22h129.57v47.22h-35.12v177.96h35.12v47.22h-129.57Z"/>
          <path class="cls-1" d="M2856.1,549.12v219.72h-59.32v-219.72h-73.76v-52.69h206.84v52.69h-73.75Z"/>
          <path class="cls-1" d="M3077.77,773.53c-17.94,0-34.34-2.99-49.17-8.98-14.83-5.98-27.46-14.89-37.86-26.73-10.41-11.83-18.48-26.53-24.2-44.1-5.72-17.56-8.58-37.92-8.58-61.08s2.86-43.52,8.58-61.08c5.72-17.56,13.79-32.26,24.2-44.1,10.41-11.84,23.03-20.74,37.86-26.73,14.83-5.98,31.22-8.97,49.17-8.97s34.35,2.99,49.18,8.97c14.83,5.99,27.44,14.9,37.85,26.73,10.41,11.84,18.48,26.54,24.2,44.1,5.72,17.56,8.59,37.92,8.59,61.08s-2.87,43.52-8.59,61.08c-5.72,17.56-13.79,32.27-24.2,44.1-10.41,11.84-23.02,20.76-37.85,26.73-14.83,5.99-31.22,8.98-49.18,8.98ZM3077.77,720.84c17.96,0,31.94-5.85,41.96-17.56,10.01-11.71,15.02-28.49,15.02-50.34v-40.59c0-21.86-5.02-38.64-15.02-50.35-10.02-11.7-24-17.56-41.96-17.56s-31.94,5.86-41.95,17.56c-10.02,11.71-15.04,28.49-15.04,50.35v40.59c0,21.85,5.02,38.63,15.04,50.34,10.01,11.71,24,17.56,41.95,17.56Z"/>
          <path class="cls-1" d="M3269.79,702.89c11.7,0,20.36,2.93,25.95,8.78,5.59,5.86,8.38,13.34,8.38,22.44v7.81c0,15.87-3.84,31.48-11.51,46.84-7.68,15.35-17.76,27.84-30.24,37.46h-39.03c9.1-8.58,16.9-17.11,23.41-25.57,6.51-8.46,11.45-17.89,14.83-28.29-9.11-1.56-15.74-5.14-19.89-10.73-4.17-5.59-6.25-12.16-6.25-19.71v-7.81c0-9.1,2.8-16.58,8.4-22.44,5.59-5.85,14.24-8.78,25.95-8.78Z"/>
        </g>
        <g>
          <path class="cls-1" d="M3484.84,642.98l-26.15-54.64h-1.18v183.43h-55.81v-272.4h64.79l74.55,128.79,26.15,54.63h1.16v-183.42h55.81v272.4h-64.79l-74.54-128.78Z"/>
          <path class="cls-1" d="M3692.07,771.76v-272.4h185.38v52.69h-126.06v55.41h108.11v52.69h-108.11v58.93h126.06v52.68h-185.38Z"/>
          <path class="cls-1" d="M4109.67,728.45h-1.95c-2.1,13.79-9.11,25.24-21.08,34.34-11.97,9.11-28.23,13.67-48.78,13.67-15.62,0-30.18-2.99-43.72-8.98-13.53-5.99-25.36-14.83-35.51-26.53-10.14-11.72-18.09-26.28-23.81-43.72-5.72-17.42-8.58-37.6-8.58-60.5s2.98-43.18,8.97-60.88c5.99-17.69,14.38-32.51,25.18-44.48,10.8-11.96,23.74-21.08,38.83-27.32,15.08-6.25,31.87-9.37,50.34-9.37,24.45,0,45.53,5.26,63.22,15.81,17.69,10.54,31.61,26.34,41.76,47.42l-48.39,27.71c-4.17-10.67-10.67-19.71-19.52-27.13-8.84-7.42-21.2-11.12-37.08-11.12-18.48,0-33.17,5.33-44.1,16.01-10.93,10.66-16.39,27.44-16.39,50.34v43.7c0,22.65,5.46,39.37,16.39,50.16,10.93,10.8,25.63,16.19,44.1,16.19,7.28,0,14.18-.84,20.68-2.53,6.51-1.68,12.23-4.29,17.18-7.8,4.93-3.51,8.77-7.74,11.51-12.69,2.73-4.94,4.1-10.8,4.1-17.57v-13.65h-50.73v-49.57h107.33v151.82h-49.96v-43.32Z"/>
          <path class="cls-1" d="M4334.46,776.45c-17.94,0-34.34-2.99-49.17-8.98-14.83-5.99-27.46-14.89-37.86-26.74-10.41-11.83-18.48-26.53-24.2-44.09-5.72-17.57-8.58-37.92-8.58-61.08s2.86-43.52,8.58-61.08c5.72-17.57,13.79-32.26,24.2-44.1,10.41-11.84,23.03-20.74,37.86-26.73,14.83-5.98,31.22-8.97,49.17-8.97s34.35,2.99,49.18,8.97c14.83,5.99,27.44,14.9,37.85,26.73,10.41,11.84,18.48,26.53,24.2,44.1,5.72,17.56,8.59,37.92,8.59,61.08s-2.87,43.51-8.59,61.08c-5.72,17.56-13.79,32.27-24.2,44.09-10.41,11.85-23.02,20.76-37.85,26.74-14.83,5.99-31.22,8.98-49.18,8.98ZM4334.46,723.76c17.96,0,31.94-5.85,41.96-17.56,10.01-11.72,15.02-28.5,15.02-50.34v-40.59c0-21.86-5.02-38.64-15.02-50.35-10.02-11.7-24-17.56-41.96-17.56s-31.94,5.85-41.95,17.56c-10.02,11.72-15.04,28.5-15.04,50.35v40.59c0,21.85,5.02,38.63,15.04,50.34,10.01,11.7,24,17.56,41.95,17.56ZM4340.71,482.97l-34.35-16.78,38.64-75.71,48,23.81-52.29,68.69Z"/>
          <path class="cls-1" d="M4621.71,776.45c-18.48,0-35.12-2.93-49.96-8.78-14.83-5.85-27.46-14.56-37.86-26.15-10.41-11.57-18.48-26.01-24.2-43.33-5.72-17.29-8.58-37.52-8.58-60.68s2.86-43.25,8.58-61.08c5.72-17.82,13.79-32.79,24.2-44.88,10.41-12.1,23.03-21.27,37.86-27.51,14.83-6.25,31.48-9.37,49.96-9.37,25.23,0,46.05,5.14,62.43,15.41,16.39,10.28,29.53,26.48,39.43,48.59l-51.13,26.53c-3.65-11.44-9.31-20.61-16.97-27.5-7.68-6.89-18.93-10.35-33.76-10.35-17.44,0-31.42,5.66-41.96,16.97-10.54,11.32-15.81,27.78-15.81,49.37v43.7c0,21.6,5.27,38.06,15.81,49.37,10.54,11.32,24.52,16.97,41.96,16.97,14.56,0,26.21-3.96,34.93-11.9,8.71-7.94,15.15-17.5,19.31-28.69l48.39,28.11c-10.14,20.82-23.48,36.87-40,48.2-16.53,11.32-37.41,16.97-62.64,16.97Z"/>
          <path class="cls-1" d="M4762.99,771.76v-47.22h35.12v-177.96h-35.12v-47.22h129.57v47.22h-35.12v177.96h35.12v47.22h-129.57Z"/>
          <path class="cls-1" d="M5059.2,776.45c-17.94,0-34.34-2.99-49.17-8.98-14.83-5.99-27.46-14.89-37.86-26.74-10.41-11.83-18.48-26.53-24.2-44.09-5.72-17.57-8.58-37.92-8.58-61.08s2.86-43.52,8.58-61.08c5.72-17.57,13.79-32.26,24.2-44.1,10.41-11.84,23.03-20.74,37.86-26.73,14.83-5.98,31.22-8.97,49.17-8.97s34.35,2.99,49.18,8.97c14.83,5.99,27.44,14.9,37.85,26.73,10.41,11.84,18.48,26.53,24.2,44.1,5.72,17.56,8.59,37.92,8.59,61.08s-2.87,43.51-8.59,61.08c-5.72,17.56-13.79,32.27-24.2,44.09-10.41,11.85-23.02,20.76-37.85,26.74-14.83,5.99-31.22,8.98-49.18,8.98ZM5059.2,723.76c17.96,0,31.94-5.85,41.96-17.56,10.01-11.72,15.02-28.5,15.02-50.34v-40.59c0-21.86-5.02-38.64-15.02-50.35-10.02-11.7-24-17.56-41.96-17.56s-31.94,5.85-41.95,17.56c-10.02,11.72-15.04,28.5-15.04,50.35v40.59c0,21.85,5.02,38.63,15.04,50.34,10.01,11.7,24,17.56,41.95,17.56Z"/>
          <path class="cls-1" d="M5337.69,776.45c-23.94,0-44.24-4.11-60.88-12.31-16.65-8.2-30.84-18.83-42.54-31.85l39.03-39.46c18.48,20.62,41.23,30.93,68.3,30.93,14.56,0,25.37-2.96,32.4-8.88,7.02-5.94,10.53-13.8,10.53-23.6,0-7.48-2.08-13.73-6.24-18.76-4.17-5.03-12.63-8.44-25.37-10.25l-26.92-3.48c-28.89-3.65-50.03-12.37-63.43-26.18-13.4-13.8-20.1-32.17-20.1-55.09,0-12.25,2.35-23.44,7.03-33.6,4.69-10.16,11.38-18.89,20.1-26.18,8.71-7.29,19.39-12.96,32-17,12.63-4.03,26.99-6.05,43.13-6.05,20.55,0,38.64,3.26,54.24,9.77,15.61,6.51,29.01,16.02,40.2,28.53l-39.43,39.87c-6.51-7.46-14.37-13.58-23.6-18.34-9.24-4.76-20.89-7.15-34.93-7.15-13.27,0-23.17,2.32-29.66,6.95-6.51,4.63-9.77,11.07-9.77,19.31,0,9.27,2.54,15.97,7.62,20.09,5.06,4.12,13.33,7.08,24.78,8.88l26.93,4.3c28.1,4.42,48.9,13.09,62.43,25.98,13.53,12.89,20.29,31.2,20.29,54.89,0,13.02-2.34,25.01-7.03,35.95-4.68,10.94-11.51,20.32-20.49,28.12-8.97,7.83-20.09,13.87-33.37,18.17-13.27,4.29-28.35,6.45-45.27,6.45Z"/>
        </g>
        <g>
          <path class="cls-1" d="M2071.46,937.6v219.72h-59.32v-219.72h-73.76v-52.69h206.84v52.69h-73.75Z"/>
          <path class="cls-1" d="M2193.6,1157.32v-272.41h185.38v52.69h-126.06v55.41h108.11v52.69h-108.11v58.93h126.06v52.68h-185.38Z"/>
          <path class="cls-1" d="M1600.66,1157.32v-272.41h185.38v52.69h-126.06v55.41h108.11v52.69h-108.11v58.93h126.06v52.68h-185.38Z"/>
          <path class="cls-1" d="M2548.38,1162c-18.48,0-35.12-2.93-49.96-8.78-14.83-5.85-27.46-14.56-37.86-26.15-10.41-11.57-18.48-26.01-24.2-43.33-5.72-17.29-8.58-37.52-8.58-60.68s2.86-43.25,8.58-61.08c5.72-17.82,13.79-32.79,24.2-44.89,10.41-12.09,23.03-21.26,37.86-27.5,14.83-6.25,31.48-9.37,49.96-9.37,25.23,0,46.05,5.14,62.43,15.41,16.39,10.27,29.53,26.47,39.43,48.59l-51.13,26.53c-3.65-11.44-9.31-20.61-16.97-27.5-7.68-6.89-18.93-10.35-33.76-10.35-17.44,0-31.42,5.66-41.96,16.97-10.54,11.32-15.81,27.78-15.81,49.37v43.7c0,21.6,5.27,38.06,15.81,49.37,10.54,11.32,24.52,16.97,41.96,16.97,14.56,0,26.21-3.96,34.93-11.9,8.71-7.94,15.15-17.5,19.31-28.69l48.39,28.11c-10.14,20.82-23.48,36.87-40,48.2-16.53,11.32-37.41,16.97-62.64,16.97Z"/>
          <path class="cls-1" d="M2783.31,1028.53l-26.15-54.64h-1.18v183.43h-55.81v-272.41h64.79l74.55,128.8,26.15,54.63h1.16v-183.43h55.81v272.41h-64.79l-74.54-128.78Z"/>
          <path class="cls-1" d="M3099.82,1162c-17.94,0-34.34-2.99-49.17-8.98-14.83-5.99-27.46-14.89-37.86-26.74-10.41-11.83-18.48-26.53-24.2-44.09-5.72-17.57-8.58-37.92-8.58-61.08s2.86-43.52,8.58-61.08c5.72-17.57,13.79-32.27,24.2-44.1,10.41-11.84,23.03-20.74,37.86-26.74,14.83-5.97,31.22-8.97,49.17-8.97s34.35,2.99,49.18,8.97c14.83,6,27.44,14.9,37.85,26.74,10.41,11.84,18.48,26.53,24.2,44.1,5.72,17.56,8.59,37.92,8.59,61.08s-2.87,43.51-8.59,61.08c-5.72,17.56-13.79,32.27-24.2,44.09-10.41,11.85-23.02,20.76-37.85,26.74-14.83,5.99-31.22,8.98-49.18,8.98ZM3099.82,1109.31c17.96,0,31.94-5.85,41.96-17.56,10.01-11.72,15.02-28.5,15.02-50.34v-40.59c0-21.86-5.02-38.64-15.02-50.35-10.02-11.7-24-17.56-41.96-17.56s-31.94,5.85-41.95,17.56c-10.02,11.72-15.04,28.5-15.04,50.35v40.59c0,21.85,5.02,38.63,15.04,50.34,10.01,11.7,24,17.56,41.95,17.56Z"/>
          <path class="cls-1" d="M3277.01,1157.32v-272.41h59.32v219.73h103.81v52.68h-163.13Z"/>
          <path class="cls-1" d="M3585.32,1162c-17.94,0-34.34-2.99-49.17-8.98-14.83-5.99-27.46-14.89-37.86-26.74-10.41-11.83-18.48-26.53-24.2-44.09-5.72-17.57-8.58-37.92-8.58-61.08s2.86-43.52,8.58-61.08c5.72-17.57,13.79-32.27,24.2-44.1,10.41-11.84,23.03-20.74,37.86-26.74,14.83-5.97,31.22-8.97,49.17-8.97s34.35,2.99,49.18,8.97c14.83,6,27.44,14.9,37.85,26.74,10.41,11.84,18.48,26.53,24.2,44.1,5.72,17.56,8.59,37.92,8.59,61.08s-2.87,43.51-8.59,61.08c-5.72,17.56-13.79,32.27-24.2,44.09-10.41,11.85-23.02,20.76-37.85,26.74-14.83,5.99-31.22,8.98-49.18,8.98ZM3585.32,1109.31c17.96,0,31.94-5.85,41.96-17.56,10.01-11.72,15.02-28.5,15.02-50.34v-40.59c0-21.86-5.02-38.64-15.02-50.35-10.02-11.7-24-17.56-41.96-17.56s-31.94,5.85-41.95,17.56c-10.02,11.72-15.04,28.5-15.04,50.35v40.59c0,21.85,5.02,38.63,15.04,50.34,10.01,11.7,24,17.56,41.95,17.56Z"/>
          <path class="cls-1" d="M3935.4,1114h-1.95c-2.1,13.79-9.11,25.24-21.08,34.34-11.97,9.11-28.23,13.67-48.78,13.67-15.62,0-30.18-2.99-43.72-8.98-13.53-5.99-25.36-14.83-35.51-26.53-10.14-11.72-18.09-26.28-23.81-43.72-5.72-17.42-8.58-37.6-8.58-60.5s2.98-43.18,8.97-60.88c5.99-17.69,14.38-32.52,25.18-44.49,10.8-11.96,23.74-21.07,38.83-27.31,15.08-6.25,31.87-9.37,50.34-9.37,24.45,0,45.53,5.26,63.22,15.8,17.69,10.54,31.61,26.34,41.76,47.42l-48.39,27.71c-4.17-10.67-10.67-19.71-19.52-27.13-8.84-7.42-21.2-11.12-37.08-11.12-18.48,0-33.17,5.33-44.1,16.01-10.93,10.66-16.39,27.44-16.39,50.34v43.7c0,22.65,5.46,39.37,16.39,50.16,10.93,10.8,25.63,16.19,44.1,16.19,7.28,0,14.18-.84,20.68-2.53,6.51-1.68,12.23-4.29,17.18-7.8,4.93-3.51,8.77-7.74,11.51-12.69,2.73-4.94,4.1-10.8,4.1-17.57v-13.65h-50.73v-49.57h107.33v151.82h-49.96v-43.32Z"/>
          <path class="cls-1" d="M4040.39,1157.32v-47.22h35.12v-177.96h-35.12v-47.23h129.57v47.23h-35.12v177.96h35.12v47.22h-129.57Z"/>
          <path class="cls-1" d="M4395.14,1157.32l-19.52-64.79h-90.93l-19.51,64.79h-60.11l89.77-272.41h73.36l88.59,272.41h-61.66ZM4330.74,938.76h-1.95l-30.05,103.42h62.45l-30.45-103.42Z"/>
        </g>
      </g>
      <path class="cls-1" d="M613.63,0c20.52,4.55,41.16,8.6,61.54,13.72,167.85,42.25,282.03,187.96,282.02,360.56-.02,182.82,1.85,365.69-1.73,548.45-3.2,163.45-75.95,292.1-212.17,382.98-57.61,38.44-121.93,56.31-193.67,49.49v-224.25h43.18v186.21c36.94-12.61,71.43-19.14,100.62-35.26,133.97-74,209.97-189.98,215.46-341.85,6.85-189.65,3.75-379.72,2.74-569.59-.97-182.98-148.99-325.09-335.57-325.22-8.48,0-16.97,0-28.35,0V0C569.67,0,591.65,0,613.63,0Z"/>
      <path class="cls-1" d="M1102.11,0c20.5,4.56,41.13,8.62,61.49,13.76,167.8,42.35,281.72,187.78,281.74,360.69.02,182.8,2.14,365.68-2.07,548.39-4.05,175.92-84.83,310.21-238.35,398.05-53.35,30.53-108.39,39.69-167.01,33.77v-223.78h43.2v186.31c36.94-12.65,71.48-19.17,100.63-35.37,136.28-75.71,211.19-193.92,215.87-348.88,5.56-184.22-.27-368.76,3.27-553.07,3.94-205.32-174.15-338.86-338.9-334.64-7.7.2-15.4.03-25.81.03V0C1058.15,0,1080.13,0,1102.11,0Z"/>
      <path class="cls-1" d="M364.11,0c-.71,14.69-1.43,29.39-2.17,44.67-18.94,3.05-36.77,5.1-54.24,8.87C155.44,86.37,49.18,212.39,46.53,368.05c-2.52,148.27-3.09,296.61-1.32,444.89,1.89,159.2,129.91,294.71,291.32,312.92,8.4.95,16.75,2.29,25.2,3.46v44.04c-16.15-1.83-30.77-2.89-45.18-5.21C131.71,1138.32-.1,983.98,0,797.35c.08-134.96.49-269.93.84-404.89C1.38,184.87,122.64,40.68,327.56,3.7c2.89-.52,5.53-2.43,8.29-3.7,9.42,0,18.84,0,28.26,0Z"/>
    </g>
  </g>
</svg>