<?xml version="1.0" encoding="UTF-8"?>
<svg id="Camada_2" xmlns="http://www.w3.org/2000/svg" viewBox="0 0 195.03 148.06">
  <defs>
    <style>
      .cls-1 {
        fill: #fff;
      }

      .cls-2 {
        fill: #96165c;
      }
    </style>
  </defs>
  <g id="BACKGROUND">
    <g>
      <g>
        <path class="cls-2" d="M6.95,68.13c-1.07,0-2.03-.17-2.88-.51-.86-.34-1.58-.84-2.18-1.51-.6-.67-1.07-1.5-1.4-2.5-.33-1-.49-2.16-.49-3.5s.16-2.49.49-3.52c.33-1.03.8-1.89,1.4-2.59s1.33-1.23,2.18-1.59c.86-.36,1.82-.54,2.88-.54,1.45,0,2.66.3,3.6.89.95.59,1.7,1.53,2.27,2.8l-2.95,1.53c-.21-.66-.54-1.19-.98-1.59-.44-.4-1.09-.6-1.95-.6-1.01,0-1.81.33-2.42.98s-.91,1.6-.91,2.85v2.52c0,1.25.3,2.19.91,2.85s1.41.98,2.42.98c.84,0,1.51-.23,2.01-.69.5-.46.87-1.01,1.11-1.65l2.79,1.62c-.58,1.2-1.35,2.13-2.31,2.78-.95.65-2.16.98-3.61.98Z"/>
        <path class="cls-2" d="M21.72,68.13c-1.03,0-1.98-.17-2.84-.52-.86-.34-1.58-.86-2.18-1.54-.6-.68-1.07-1.53-1.4-2.54s-.49-2.19-.49-3.52.16-2.51.49-3.52.8-1.86,1.4-2.54c.6-.68,1.33-1.2,2.18-1.54.86-.34,1.8-.52,2.84-.52s1.98.17,2.84.52c.86.35,1.58.86,2.18,1.54.6.68,1.07,1.53,1.4,2.54s.5,2.19.5,3.52-.17,2.51-.5,3.52-.8,1.86-1.4,2.54c-.6.68-1.33,1.2-2.18,1.54-.86.35-1.8.52-2.84.52ZM21.72,65.09c1.04,0,1.84-.34,2.42-1.01.58-.68.87-1.64.87-2.9v-2.34c0-1.26-.29-2.23-.87-2.9-.58-.67-1.38-1.01-2.42-1.01s-1.84.34-2.42,1.01c-.58.68-.87,1.64-.87,2.9v2.34c0,1.26.29,2.23.87,2.9.58.68,1.38,1.01,2.42,1.01Z"/>
        <path class="cls-2" d="M36.73,60.43l-1.51-3.15h-.07v10.58h-3.22v-15.71h3.74l4.3,7.43,1.51,3.15h.07v-10.58h3.22v15.71h-3.74l-4.3-7.43Z"/>
        <path class="cls-2" d="M58.65,65.36h-.11c-.12.8-.53,1.46-1.22,1.98s-1.63.79-2.81.79c-.9,0-1.74-.17-2.52-.52-.78-.34-1.46-.86-2.05-1.53-.58-.68-1.04-1.52-1.37-2.52-.33-1-.49-2.17-.49-3.49s.17-2.49.52-3.51c.35-1.02.83-1.88,1.45-2.57.62-.69,1.37-1.22,2.24-1.58.87-.36,1.84-.54,2.9-.54,1.41,0,2.63.3,3.65.91,1.02.61,1.82,1.52,2.41,2.73l-2.79,1.6c-.24-.62-.62-1.14-1.13-1.56-.51-.43-1.22-.64-2.14-.64-1.07,0-1.91.31-2.54.92s-.95,1.58-.95,2.9v2.52c0,1.31.32,2.27.95,2.89s1.48.93,2.54.93c.42,0,.82-.05,1.19-.15.38-.1.7-.25.99-.45.28-.2.51-.45.66-.73.16-.28.24-.62.24-1.01v-.79h-2.93v-2.86h6.19v8.75h-2.88v-2.5Z"/>
        <path class="cls-2" d="M68.73,67.86h-3.42v-15.71h7.45c.72,0,1.37.12,1.96.36.59.24,1.08.58,1.5,1.02.41.44.73.97.96,1.59.22.62.34,1.3.34,2.05,0,1.07-.24,2-.71,2.79-.47.8-1.19,1.37-2.15,1.73l3.08,6.17h-3.8l-2.75-5.76h-2.45v5.76ZM72.33,59.21c.51,0,.91-.13,1.2-.39.29-.26.44-.65.44-1.16v-.99c0-.51-.15-.9-.44-1.16-.29-.26-.69-.39-1.2-.39h-3.6v4.1h3.6Z"/>
        <path class="cls-2" d="M80.93,67.86v-15.71h10.69v3.04h-7.27v3.2h6.23v3.04h-6.23v3.4h7.27v3.04h-10.69Z"/>
        <path class="cls-2" d="M100.12,68.13c-1.38,0-2.55-.24-3.51-.71-.96-.47-1.78-1.09-2.45-1.84l2.25-2.28c1.07,1.19,2.38,1.78,3.94,1.78.84,0,1.46-.17,1.87-.51.4-.34.61-.8.61-1.36,0-.43-.12-.79-.36-1.08-.24-.29-.73-.49-1.46-.59l-1.55-.2c-1.67-.21-2.88-.71-3.66-1.51s-1.16-1.85-1.16-3.18c0-.71.14-1.35.41-1.94.27-.59.66-1.09,1.16-1.51.5-.42,1.12-.75,1.85-.98.73-.23,1.56-.35,2.49-.35,1.18,0,2.23.19,3.13.56s1.67.92,2.32,1.65l-2.27,2.3c-.38-.43-.83-.78-1.36-1.06-.53-.27-1.2-.41-2.01-.41-.77,0-1.34.13-1.71.4-.38.27-.56.64-.56,1.11,0,.53.15.92.44,1.16.29.24.77.41,1.43.51l1.55.25c1.62.26,2.82.75,3.6,1.5s1.17,1.8,1.17,3.16c0,.75-.13,1.44-.41,2.07-.27.63-.66,1.17-1.18,1.62-.52.45-1.16.8-1.92,1.05-.77.25-1.63.37-2.61.37Z"/>
        <path class="cls-2" d="M114.3,68.13c-1.38,0-2.55-.24-3.51-.71-.96-.47-1.78-1.09-2.45-1.84l2.25-2.28c1.07,1.19,2.38,1.78,3.94,1.78.84,0,1.46-.17,1.87-.51.4-.34.61-.8.61-1.36,0-.43-.12-.79-.36-1.08-.24-.29-.73-.49-1.46-.59l-1.55-.2c-1.67-.21-2.88-.71-3.66-1.51s-1.16-1.85-1.16-3.18c0-.71.14-1.35.41-1.94.27-.59.66-1.09,1.16-1.51.5-.42,1.12-.75,1.85-.98.73-.23,1.56-.35,2.49-.35,1.18,0,2.23.19,3.13.56s1.67.92,2.32,1.65l-2.27,2.3c-.38-.43-.83-.78-1.36-1.06-.53-.27-1.2-.41-2.01-.41-.77,0-1.34.13-1.71.4-.38.27-.56.64-.56,1.11,0,.53.15.92.44,1.16.29.24.77.41,1.43.51l1.55.25c1.62.26,2.82.75,3.6,1.5s1.17,1.8,1.17,3.16c0,.75-.13,1.44-.41,2.07-.27.63-.66,1.17-1.18,1.62-.52.45-1.16.8-1.92,1.05-.77.25-1.63.37-2.61.37Z"/>
        <path class="cls-2" d="M130.01,68.13c-1.03,0-1.98-.17-2.84-.52-.86-.34-1.58-.86-2.18-1.54-.6-.68-1.07-1.53-1.4-2.54s-.49-2.19-.49-3.52.16-2.51.49-3.52.8-1.86,1.4-2.54c.6-.68,1.33-1.2,2.18-1.54.86-.34,1.8-.52,2.84-.52s1.98.17,2.84.52c.86.35,1.58.86,2.18,1.54.6.68,1.07,1.53,1.4,2.54s.5,2.19.5,3.52-.17,2.51-.5,3.52-.8,1.86-1.4,2.54c-.6.68-1.33,1.2-2.18,1.54-.86.35-1.8.52-2.84.52ZM130.01,65.09c1.04,0,1.84-.34,2.42-1.01.58-.68.87-1.64.87-2.9v-2.34c0-1.26-.29-2.23-.87-2.9-.58-.67-1.38-1.01-2.42-1.01s-1.84.34-2.42,1.01c-.58.68-.87,1.64-.87,2.9v2.34c0,1.26.29,2.23.87,2.9.58.68,1.38,1.01,2.42,1.01Z"/>
        <path class="cls-1" d="M5.06,81.43c-.67,0-1.17-.15-1.47-.46-.31-.31-.46-.7-.46-1.18v-.5c0-.48.15-.87.46-1.18s.8-.46,1.47-.46,1.17.15,1.47.46.46.7.46,1.18v.5c0,.48-.15.87-.46,1.18-.31.31-.8.46-1.47.46ZM3.4,82.69h3.33v11.81h-3.33v-11.81Z"/>
        <path class="cls-1" d="M16.81,94.77c-1.07,0-2.03-.17-2.88-.51-.86-.34-1.58-.84-2.18-1.51-.6-.67-1.07-1.5-1.4-2.5-.33-1-.49-2.16-.49-3.5s.16-2.49.49-3.52c.33-1.03.8-1.89,1.4-2.59s1.33-1.23,2.18-1.59c.86-.36,1.82-.54,2.88-.54,1.45,0,2.66.3,3.6.89.95.59,1.7,1.53,2.27,2.8l-2.95,1.53c-.21-.66-.54-1.19-.98-1.59-.44-.4-1.09-.6-1.95-.6-1.01,0-1.81.33-2.42.98s-.91,1.6-.91,2.85v2.52c0,1.25.3,2.19.91,2.85s1.41.98,2.42.98c.84,0,1.51-.23,2.01-.69.5-.46.87-1.01,1.11-1.65l2.79,1.62c-.58,1.2-1.35,2.13-2.31,2.78-.95.65-2.16.98-3.61.98Z"/>
        <path class="cls-1" d="M25.56,94.5v-15.71h10.69v3.04h-7.27v3.2h6.23v3.04h-6.23v3.4h7.27v3.04h-10.69Z"/>
        <path class="cls-1" d="M43.32,94.5l-5.06-15.71h3.47l2.34,7.54,1.24,4.93h.07l1.19-4.93,2.34-7.54h3.35l-5.11,15.71h-3.83Z"/>
        <path class="cls-1" d="M60.52,78.79h5.92c1.03,0,1.98.17,2.84.5.86.33,1.58.82,2.18,1.47.6.65,1.06,1.47,1.4,2.45.33.98.49,2.13.49,3.43s-.16,2.45-.49,3.43c-.33.98-.8,1.8-1.4,2.45-.6.65-1.33,1.14-2.18,1.47-.86.33-1.8.5-2.84.5h-5.92v-15.71ZM66.43,91.46c1.02,0,1.82-.28,2.41-.86.59-.57.88-1.49.88-2.75v-2.43c0-1.26-.29-2.18-.88-2.75-.58-.57-1.39-.86-2.41-.86h-2.5v9.63h2.5Z"/>
        <path class="cls-1" d="M76.65,94.5v-15.71h10.69v3.04h-7.27v3.2h6.23v3.04h-6.23v3.4h7.27v3.04h-10.69Z"/>
        <path class="cls-1" d="M96.52,78.79h5.92c1.03,0,1.98.17,2.84.5.86.33,1.58.82,2.18,1.47.6.65,1.06,1.47,1.4,2.45.33.98.49,2.13.49,3.43s-.16,2.45-.49,3.43c-.33.98-.8,1.8-1.4,2.45-.6.65-1.33,1.14-2.18,1.47-.86.33-1.8.5-2.84.5h-5.92v-15.71ZM102.44,91.46c1.02,0,1.82-.28,2.41-.86.59-.57.88-1.49.88-2.75v-2.43c0-1.26-.29-2.18-.88-2.75-.58-.57-1.39-.86-2.41-.86h-2.5v9.63h2.5Z"/>
        <path class="cls-1" d="M112.05,94.5v-2.72h2.03v-10.26h-2.03v-2.72h7.47v2.72h-2.03v10.26h2.03v2.72h-7.47Z"/>
        <path class="cls-1" d="M126.25,94.5h-3.42v-15.71h7.45c.72,0,1.37.12,1.96.36.59.24,1.08.58,1.5,1.02.41.44.73.97.96,1.59.22.62.34,1.3.34,2.05,0,1.07-.24,2-.71,2.79-.47.8-1.19,1.37-2.15,1.73l3.08,6.17h-3.8l-2.75-5.76h-2.45v5.76ZM129.85,85.86c.51,0,.91-.13,1.2-.39.29-.26.44-.65.44-1.16v-.99c0-.51-.15-.9-.44-1.16-.29-.26-.69-.39-1.2-.39h-3.6v4.1h3.6Z"/>
        <path class="cls-1" d="M138.45,94.5v-15.71h10.69v3.04h-7.27v3.2h6.23v3.04h-6.23v3.4h7.27v3.04h-10.69Z"/>
        <path class="cls-1" d="M151.95,94.5v-2.72h2.03v-10.26h-2.03v-2.72h7.47v2.72h-2.03v10.26h2.03v2.72h-7.47Z"/>
        <path class="cls-1" d="M169.19,81.83v12.67h-3.42v-12.67h-4.25v-3.04h11.93v3.04h-4.25Z"/>
        <path class="cls-1" d="M181.97,94.77c-1.03,0-1.98-.17-2.84-.52-.86-.34-1.58-.86-2.18-1.54-.6-.68-1.07-1.53-1.4-2.54s-.49-2.19-.49-3.52.16-2.51.49-3.52.8-1.86,1.4-2.54c.6-.68,1.33-1.2,2.18-1.54.86-.34,1.8-.52,2.84-.52s1.98.17,2.84.52c.86.35,1.58.86,2.18,1.54.6.68,1.07,1.53,1.4,2.54s.5,2.19.5,3.52-.17,2.51-.5,3.52-.8,1.86-1.4,2.54c-.6.68-1.33,1.2-2.18,1.54-.86.35-1.8.52-2.84.52ZM181.97,91.73c1.04,0,1.84-.34,2.42-1.01.58-.68.87-1.64.87-2.9v-2.34c0-1.26-.29-2.23-.87-2.9-.58-.67-1.38-1.01-2.42-1.01s-1.84.34-2.42,1.01c-.58.68-.87,1.64-.87,2.9v2.34c0,1.26.29,2.23.87,2.9.58.68,1.38,1.01,2.42,1.01Z"/>
        <path class="cls-1" d="M193.05,90.7c.67,0,1.17.17,1.5.51.32.34.48.77.48,1.29v.45c0,.92-.22,1.82-.66,2.7-.44.88-1.02,1.61-1.74,2.16h-2.25c.52-.5.97-.99,1.35-1.47s.66-1.03.86-1.63c-.53-.09-.91-.3-1.15-.62-.24-.32-.36-.7-.36-1.14v-.45c0-.52.16-.96.48-1.29.32-.34.82-.51,1.5-.51Z"/>
        <path class="cls-1" d="M8.37,113.72l-1.51-3.15h-.07v10.58h-3.22v-15.71h3.74l4.3,7.43,1.51,3.15h.07v-10.58h3.22v15.71h-3.74l-4.3-7.43Z"/>
        <path class="cls-1" d="M20.32,121.15v-15.71h10.69v3.04h-7.27v3.2h6.23v3.04h-6.23v3.4h7.27v3.04h-10.69Z"/>
        <path class="cls-1" d="M44.4,118.65h-.11c-.12.8-.53,1.46-1.22,1.98-.69.53-1.63.79-2.81.79-.9,0-1.74-.17-2.52-.52s-1.46-.86-2.05-1.53c-.58-.68-1.04-1.52-1.37-2.52-.33-1-.49-2.17-.49-3.49s.17-2.49.52-3.51c.35-1.02.83-1.87,1.45-2.57.62-.69,1.37-1.22,2.24-1.58.87-.36,1.84-.54,2.9-.54,1.41,0,2.63.3,3.65.91,1.02.61,1.82,1.52,2.41,2.73l-2.79,1.6c-.24-.62-.62-1.14-1.13-1.56s-1.22-.64-2.14-.64c-1.07,0-1.91.31-2.54.92-.63.61-.95,1.58-.95,2.9v2.52c0,1.31.32,2.27.95,2.89s1.48.93,2.54.93c.42,0,.82-.05,1.19-.15.38-.1.7-.25.99-.45.28-.2.51-.45.66-.73.16-.29.24-.62.24-1.01v-.79h-2.93v-2.86h6.19v8.75h-2.88v-2.5Z"/>
        <path class="cls-1" d="M57.36,121.42c-1.03,0-1.98-.17-2.84-.52s-1.58-.86-2.18-1.54c-.6-.68-1.07-1.53-1.4-2.54-.33-1.01-.49-2.19-.49-3.52s.16-2.51.49-3.52c.33-1.01.8-1.86,1.4-2.54.6-.68,1.33-1.2,2.18-1.54.86-.34,1.8-.52,2.84-.52s1.98.17,2.84.52c.86.35,1.58.86,2.18,1.54.6.68,1.07,1.53,1.4,2.54.33,1.01.5,2.19.5,3.52s-.17,2.51-.5,3.52c-.33,1.01-.8,1.86-1.4,2.54-.6.68-1.33,1.2-2.18,1.54s-1.8.52-2.84.52ZM57.36,118.38c1.04,0,1.84-.34,2.42-1.01.58-.68.87-1.64.87-2.9v-2.34c0-1.26-.29-2.23-.87-2.9-.58-.67-1.38-1.01-2.42-1.01s-1.84.34-2.42,1.01c-.58.68-.87,1.64-.87,2.9v2.34c0,1.26.29,2.23.87,2.9.58.67,1.38,1.01,2.42,1.01ZM57.72,104.49l-1.98-.97,2.23-4.37,2.77,1.37-3.02,3.96Z"/>
        <path class="cls-1" d="M73.93,121.42c-1.07,0-2.03-.17-2.88-.51s-1.58-.84-2.18-1.51c-.6-.67-1.07-1.5-1.4-2.5-.33-1-.49-2.16-.49-3.5s.16-2.49.49-3.52.8-1.89,1.4-2.59,1.33-1.23,2.18-1.59c.86-.36,1.82-.54,2.88-.54,1.45,0,2.66.3,3.6.89.95.59,1.7,1.53,2.27,2.8l-2.95,1.53c-.21-.66-.54-1.19-.98-1.59-.44-.4-1.09-.6-1.95-.6-1.01,0-1.81.33-2.42.98s-.91,1.6-.91,2.85v2.52c0,1.25.3,2.19.91,2.85s1.41.98,2.42.98c.84,0,1.51-.23,2.01-.69.5-.46.87-1.01,1.11-1.65l2.79,1.62c-.58,1.2-1.35,2.13-2.31,2.78-.95.65-2.16.98-3.61.98Z"/>
        <path class="cls-1" d="M82.07,121.15v-2.72h2.03v-10.26h-2.03v-2.72h7.47v2.72h-2.03v10.26h2.03v2.72h-7.47Z"/>
        <path class="cls-1" d="M99.16,121.42c-1.03,0-1.98-.17-2.84-.52s-1.58-.86-2.18-1.54c-.6-.68-1.07-1.53-1.4-2.54-.33-1.01-.49-2.19-.49-3.52s.16-2.51.49-3.52c.33-1.01.8-1.86,1.4-2.54.6-.68,1.33-1.2,2.18-1.54.86-.34,1.8-.52,2.84-.52s1.98.17,2.84.52c.86.35,1.58.86,2.18,1.54.6.68,1.07,1.53,1.4,2.54.33,1.01.5,2.19.5,3.52s-.17,2.51-.5,3.52c-.33,1.01-.8,1.86-1.4,2.54-.6.68-1.33,1.2-2.18,1.54s-1.8.52-2.84.52ZM99.16,118.38c1.04,0,1.84-.34,2.42-1.01.58-.68.87-1.64.87-2.9v-2.34c0-1.26-.29-2.23-.87-2.9-.58-.67-1.38-1.01-2.42-1.01s-1.84.34-2.42,1.01c-.58.68-.87,1.64-.87,2.9v2.34c0,1.26.29,2.23.87,2.9.58.67,1.38,1.01,2.42,1.01Z"/>
        <path class="cls-1" d="M114.37,121.42c-1.38,0-2.55-.24-3.51-.71s-1.78-1.09-2.45-1.84l2.25-2.28c1.07,1.19,2.38,1.78,3.94,1.78.84,0,1.46-.17,1.87-.51.4-.34.61-.8.61-1.36,0-.43-.12-.79-.36-1.08-.24-.29-.73-.49-1.46-.59l-1.55-.2c-1.67-.21-2.88-.71-3.66-1.51-.77-.8-1.16-1.85-1.16-3.18,0-.71.14-1.35.41-1.94.27-.59.66-1.09,1.16-1.51.5-.42,1.12-.75,1.85-.98.73-.23,1.56-.35,2.49-.35,1.18,0,2.23.19,3.13.56s1.67.92,2.32,1.65l-2.27,2.3c-.38-.43-.83-.78-1.36-1.06-.53-.27-1.2-.41-2.01-.41-.77,0-1.34.13-1.71.4-.38.27-.56.64-.56,1.11,0,.53.15.92.44,1.16.29.24.77.41,1.43.51l1.55.25c1.62.26,2.82.75,3.6,1.5s1.17,1.8,1.17,3.16c0,.75-.13,1.44-.41,2.07-.27.63-.66,1.17-1.18,1.62-.52.45-1.16.8-1.92,1.05-.77.25-1.63.37-2.61.37Z"/>
        <path class="cls-1" d="M129.54,121.15v-15.71h10.69v3.04h-7.27v3.2h6.23v3.04h-6.23v3.4h7.27v3.04h-10.69Z"/>
        <path class="cls-1" d="M10.13,135.12v12.67h-3.42v-12.67H2.45v-3.04h11.93v3.04h-4.25Z"/>
        <path class="cls-1" d="M17.17,147.79v-15.71h10.69v3.04h-7.27v3.2h6.23v3.04h-6.23v3.4h7.27v3.04h-10.69Z"/>
        <path class="cls-1" d="M37.63,148.06c-1.07,0-2.03-.17-2.88-.51s-1.58-.84-2.18-1.51c-.6-.67-1.07-1.5-1.4-2.5-.33-1-.49-2.16-.49-3.5s.16-2.49.49-3.52.8-1.89,1.4-2.59c.6-.7,1.33-1.23,2.18-1.59.86-.36,1.82-.54,2.88-.54,1.45,0,2.66.3,3.6.89.95.59,1.7,1.53,2.27,2.8l-2.95,1.53c-.21-.66-.54-1.19-.98-1.59-.44-.4-1.09-.6-1.95-.6-1.01,0-1.81.33-2.42.98s-.91,1.6-.91,2.85v2.52c0,1.25.3,2.19.91,2.85s1.41.98,2.42.98c.84,0,1.51-.23,2.01-.69.5-.46.87-1.01,1.11-1.65l2.79,1.62c-.58,1.2-1.35,2.13-2.31,2.78-.95.65-2.16.98-3.61.98Z"/>
        <path class="cls-1" d="M51.18,140.37l-1.51-3.15h-.07v10.58h-3.22v-15.71h3.74l4.3,7.43,1.51,3.15h.07v-10.58h3.22v15.71h-3.74l-4.3-7.43Z"/>
        <path class="cls-1" d="M69.43,148.06c-1.03,0-1.98-.17-2.84-.52s-1.58-.86-2.18-1.54c-.6-.68-1.07-1.53-1.4-2.54-.33-1.01-.49-2.19-.49-3.52s.16-2.51.49-3.52c.33-1.01.8-1.86,1.4-2.54s1.33-1.2,2.18-1.54c.86-.34,1.8-.52,2.84-.52s1.98.17,2.84.52c.86.35,1.58.86,2.18,1.54s1.07,1.53,1.4,2.54c.33,1.01.5,2.19.5,3.52s-.17,2.51-.5,3.52c-.33,1.01-.8,1.86-1.4,2.54-.6.68-1.33,1.2-2.18,1.54s-1.8.52-2.84.52ZM69.43,145.03c1.04,0,1.84-.34,2.42-1.01.58-.68.87-1.64.87-2.9v-2.34c0-1.26-.29-2.23-.87-2.9-.58-.67-1.38-1.01-2.42-1.01s-1.84.34-2.42,1.01c-.58.68-.87,1.64-.87,2.9v2.34c0,1.26.29,2.23.87,2.9.58.67,1.38,1.01,2.42,1.01Z"/>
        <path class="cls-1" d="M79.64,147.79v-15.71h3.42v12.67h5.99v3.04h-9.41Z"/>
        <path class="cls-1" d="M97.42,148.06c-1.03,0-1.98-.17-2.84-.52s-1.58-.86-2.18-1.54c-.6-.68-1.07-1.53-1.4-2.54-.33-1.01-.49-2.19-.49-3.52s.16-2.51.49-3.52c.33-1.01.8-1.86,1.4-2.54s1.33-1.2,2.18-1.54c.86-.34,1.8-.52,2.84-.52s1.98.17,2.84.52c.86.35,1.58.86,2.18,1.54s1.07,1.53,1.4,2.54c.33,1.01.5,2.19.5,3.52s-.17,2.51-.5,3.52c-.33,1.01-.8,1.86-1.4,2.54-.6.68-1.33,1.2-2.18,1.54s-1.8.52-2.84.52ZM97.42,145.03c1.04,0,1.84-.34,2.42-1.01.58-.68.87-1.64.87-2.9v-2.34c0-1.26-.29-2.23-.87-2.9-.58-.67-1.38-1.01-2.42-1.01s-1.84.34-2.42,1.01c-.58.68-.87,1.64-.87,2.9v2.34c0,1.26.29,2.23.87,2.9.58.67,1.38,1.01,2.42,1.01Z"/>
        <path class="cls-1" d="M117.61,145.3h-.11c-.12.8-.53,1.46-1.22,1.98-.69.53-1.63.79-2.81.79-.9,0-1.74-.17-2.52-.52s-1.46-.86-2.05-1.53c-.58-.68-1.04-1.52-1.37-2.52-.33-1-.49-2.17-.49-3.49s.17-2.49.52-3.51c.35-1.02.83-1.88,1.45-2.57.62-.69,1.37-1.21,2.24-1.57.87-.36,1.84-.54,2.9-.54,1.41,0,2.63.3,3.65.91s1.82,1.52,2.41,2.73l-2.79,1.6c-.24-.62-.62-1.14-1.13-1.56s-1.22-.64-2.14-.64c-1.07,0-1.91.31-2.54.92-.63.61-.95,1.58-.95,2.9v2.52c0,1.31.32,2.27.95,2.89s1.48.93,2.54.93c.42,0,.82-.05,1.19-.15.38-.1.7-.25.99-.45.28-.2.51-.45.66-.73.16-.29.24-.62.24-1.01v-.79h-2.93v-2.86h6.19v8.75h-2.88v-2.5Z"/>
        <path class="cls-1" d="M123.66,147.79v-2.72h2.03v-10.26h-2.03v-2.72h7.47v2.72h-2.03v10.26h2.03v2.72h-7.47Z"/>
        <path class="cls-1" d="M144.12,147.79l-1.13-3.74h-5.24l-1.12,3.74h-3.47l5.18-15.71h4.23l5.11,15.71h-3.56ZM140.41,135.19h-.11l-1.73,5.96h3.6l-1.76-5.96Z"/>
      </g>
      <path class="cls-1" d="M20.62,0c.53.12,1.06.22,1.58.35,4.32,1.09,7.26,4.84,7.26,9.28,0,4.71.05,9.42-.04,14.12-.08,4.21-1.96,7.52-5.46,9.86-1.48.99-3.14,1.45-4.99,1.27v-5.77h1.11v4.79c.95-.32,1.84-.49,2.59-.91,3.45-1.91,5.41-4.89,5.55-8.8.18-4.88.1-9.78.07-14.67-.03-4.71-3.84-8.37-8.64-8.37-.22,0-.44,0-.73,0V0C19.49,0,20.05,0,20.62,0Z"/>
      <path class="cls-1" d="M34.73,0c.53.12,1.06.22,1.58.35,4.32,1.09,7.25,4.84,7.25,9.29,0,4.71.06,9.42-.05,14.12-.1,4.53-2.18,7.99-6.14,10.25-1.37.79-2.79,1.02-4.3.87v-5.76h1.11v4.8c.95-.33,1.84-.49,2.59-.91,3.51-1.95,5.44-4.99,5.56-8.98.14-4.74,0-9.5.08-14.24.1-5.29-4.48-8.73-8.73-8.62-.2,0-.4,0-.66,0V0C33.6,0,34.17,0,34.73,0Z"/>
      <path class="cls-1" d="M11.83,0c-.02.38-.04.76-.06,1.15-.49.08-.95.13-1.4.23-3.92.85-6.66,4.09-6.73,8.1-.06,3.82-.08,7.64-.03,11.46.05,4.1,3.35,7.59,7.5,8.06.22.02.43.06.65.09v1.13c-.42-.05-.79-.07-1.16-.13-4.76-.77-8.15-4.74-8.15-9.55,0-3.48.01-6.95.02-10.43C2.49,4.76,5.61,1.05,10.89.1c.07-.01.14-.06.21-.1.24,0,.49,0,.73,0Z"/>
      <path class="cls-1" d="M60.33,29.7c-1.75.03-3.32-.23-4.78-1-3.13-1.65-4.83-4.2-4.84-7.79,0-3.75.01-7.5.03-11.25.02-4.22,3.08-7.82,7.25-8.52,3.45-.58,6.41.35,8.78,2.95,1.31,1.43,2.03,3.16,2.03,5.11.02,5.21.05,10.42-.04,15.64-.07,4.21-3.43,8.48-7.27,9.49-.35.09-.72.15-1.16.23v-4.86Z"/>
    </g>
  </g>
</svg>