<?xml version="1.0" encoding="UTF-8"?>
<svg id="Camada_2" xmlns="http://www.w3.org/2000/svg" viewBox="0 0 815.59 283.22">
  <defs>
    <style>
      .cls-1 {
        fill: #fff;
      }

      .cls-2 {
        fill: #96165c;
      }
    </style>
  </defs>
  <g id="BACKGROUND">
    <g>
      <path class="cls-2" d="M261.83,47.84c-3.14,0-5.96-.5-8.48-1.49-2.52-.99-4.66-2.47-6.43-4.44-1.77-1.96-3.14-4.42-4.11-7.36-.97-2.94-1.46-6.37-1.46-10.3s.49-7.34,1.46-10.37c.97-3.03,2.34-5.57,4.11-7.62,1.77-2.05,3.91-3.61,6.43-4.67,2.52-1.06,5.34-1.59,8.48-1.59,4.28,0,7.82.87,10.6,2.62,2.78,1.75,5.01,4.5,6.69,8.25l-8.68,4.51c-.62-1.94-1.58-3.5-2.88-4.67-1.3-1.17-3.21-1.76-5.73-1.76-2.96,0-5.33.96-7.12,2.88s-2.68,4.72-2.68,8.38v7.42c0,3.67.89,6.46,2.68,8.38,1.79,1.92,4.16,2.88,7.12,2.88,2.47,0,4.45-.67,5.93-2.02,1.48-1.35,2.57-2.97,3.28-4.87l8.22,4.77c-1.72,3.53-3.99,6.26-6.79,8.18-2.81,1.92-6.35,2.88-10.64,2.88Z"/>
      <path class="cls-2" d="M305.29,47.84c-3.05,0-5.83-.51-8.35-1.52-2.52-1.02-4.66-2.53-6.43-4.54-1.77-2.01-3.14-4.51-4.11-7.49-.97-2.98-1.46-6.44-1.46-10.37s.49-7.39,1.46-10.37c.97-2.98,2.34-5.48,4.11-7.49,1.77-2.01,3.91-3.52,6.43-4.54,2.52-1.02,5.3-1.52,8.35-1.52s5.83.51,8.35,1.52c2.52,1.02,4.66,2.53,6.43,4.54,1.77,2.01,3.14,4.51,4.11,7.49.97,2.98,1.46,6.44,1.46,10.37s-.49,7.39-1.46,10.37-2.34,5.48-4.11,7.49c-1.77,2.01-3.91,3.52-6.43,4.54-2.52,1.02-5.3,1.52-8.35,1.52ZM305.29,38.9c3.05,0,5.42-.99,7.12-2.98,1.7-1.99,2.55-4.84,2.55-8.55v-6.89c0-3.71-.85-6.56-2.55-8.55-1.7-1.99-4.08-2.98-7.12-2.98s-5.42.99-7.12,2.98c-1.7,1.99-2.55,4.84-2.55,8.55v6.89c0,3.71.85,6.56,2.55,8.55,1.7,1.99,4.08,2.98,7.12,2.98Z"/>
      <path class="cls-2" d="M349.49,25.18l-4.44-9.28h-.2v31.14h-9.48V.8h11l12.66,21.87,4.44,9.28h.2V.8h9.48v46.25h-11l-12.66-21.87Z"/>
      <path class="cls-2" d="M414.03,39.69h-.33c-.36,2.34-1.55,4.29-3.58,5.83-2.03,1.55-4.79,2.32-8.28,2.32-2.65,0-5.12-.51-7.42-1.52-2.3-1.02-4.31-2.52-6.03-4.51-1.72-1.99-3.07-4.46-4.04-7.42-.97-2.96-1.46-6.38-1.46-10.27s.51-7.33,1.52-10.34c1.02-3,2.44-5.52,4.27-7.55,1.83-2.03,4.03-3.58,6.59-4.64,2.56-1.06,5.41-1.59,8.55-1.59,4.15,0,7.73.89,10.73,2.68,3,1.79,5.37,4.47,7.09,8.05l-8.22,4.7c-.71-1.81-1.81-3.35-3.31-4.61-1.5-1.26-3.6-1.89-6.3-1.89-3.14,0-5.63.91-7.49,2.72-1.86,1.81-2.78,4.66-2.78,8.55v7.42c0,3.84.93,6.68,2.78,8.52,1.86,1.83,4.35,2.75,7.49,2.75,1.24,0,2.41-.14,3.51-.43,1.1-.29,2.08-.73,2.92-1.32.84-.6,1.49-1.31,1.95-2.15.46-.84.7-1.83.7-2.98v-2.32h-8.61v-8.41h18.22v25.78h-8.48v-7.36Z"/>
      <path class="cls-2" d="M443.72,47.05h-10.07V.8h21.93c2.12,0,4.04.35,5.76,1.06,1.72.71,3.19,1.71,4.41,3.02,1.22,1.3,2.15,2.86,2.82,4.67.66,1.81,1,3.82,1,6.03,0,3.14-.7,5.88-2.09,8.22-1.39,2.34-3.5,4.04-6.33,5.1l9.08,18.16h-11.2l-8.08-16.96h-7.22v16.96ZM454.32,21.6c1.5,0,2.68-.39,3.54-1.16.86-.77,1.29-1.91,1.29-3.41v-2.92c0-1.5-.43-2.64-1.29-3.41-.86-.77-2.04-1.16-3.54-1.16h-10.6v12.06h10.6Z"/>
      <path class="cls-2" d="M479.64,47.05V.8h31.48v8.95h-21.4v9.41h18.36v8.95h-18.36v10.01h21.4v8.95h-31.48Z"/>
      <path class="cls-2" d="M536.16,47.84c-4.07,0-7.51-.7-10.34-2.09-2.83-1.39-5.24-3.2-7.22-5.41l6.63-6.7c3.14,3.5,7,5.25,11.6,5.25,2.47,0,4.31-.5,5.5-1.51,1.19-1.01,1.79-2.34,1.79-4.01,0-1.27-.35-2.33-1.06-3.18-.71-.85-2.14-1.43-4.31-1.74l-4.57-.59c-4.9-.62-8.49-2.1-10.77-4.44-2.28-2.34-3.41-5.46-3.41-9.36,0-2.08.4-3.98,1.19-5.71.8-1.72,1.93-3.21,3.41-4.45,1.48-1.24,3.29-2.2,5.43-2.89,2.14-.69,4.58-1.03,7.32-1.03,3.49,0,6.56.55,9.21,1.66s4.92,2.72,6.83,4.84l-6.69,6.77c-1.1-1.27-2.44-2.31-4.01-3.12-1.57-.81-3.55-1.21-5.93-1.21-2.25,0-3.93.39-5.04,1.18-1.1.79-1.66,1.88-1.66,3.28,0,1.57.43,2.71,1.29,3.41.86.7,2.26,1.2,4.21,1.51l4.57.73c4.77.75,8.3,2.22,10.6,4.41,2.3,2.19,3.45,5.3,3.45,9.32,0,2.21-.4,4.25-1.19,6.1-.79,1.86-1.95,3.45-3.48,4.78-1.52,1.33-3.41,2.36-5.67,3.08-2.25.73-4.81,1.09-7.69,1.09Z"/>
      <path class="cls-2" d="M577.91,47.84c-4.07,0-7.51-.7-10.34-2.09-2.83-1.39-5.24-3.2-7.22-5.41l6.63-6.7c3.14,3.5,7,5.25,11.6,5.25,2.47,0,4.31-.5,5.5-1.51,1.19-1.01,1.79-2.34,1.79-4.01,0-1.27-.35-2.33-1.06-3.18-.71-.85-2.14-1.43-4.31-1.74l-4.57-.59c-4.9-.62-8.49-2.1-10.77-4.44-2.28-2.34-3.41-5.46-3.41-9.36,0-2.08.4-3.98,1.19-5.71.8-1.72,1.93-3.21,3.41-4.45,1.48-1.24,3.29-2.2,5.43-2.89,2.14-.69,4.58-1.03,7.32-1.03,3.49,0,6.56.55,9.21,1.66,2.65,1.11,4.92,2.72,6.83,4.84l-6.69,6.77c-1.1-1.27-2.44-2.31-4.01-3.12-1.57-.81-3.55-1.21-5.93-1.21-2.25,0-3.93.39-5.04,1.18-1.1.79-1.66,1.88-1.66,3.28,0,1.57.43,2.71,1.29,3.41.86.7,2.26,1.2,4.21,1.51l4.57.73c4.77.75,8.3,2.22,10.6,4.41,2.3,2.19,3.45,5.3,3.45,9.32,0,2.21-.4,4.25-1.19,6.1-.79,1.86-1.95,3.45-3.48,4.78-1.52,1.33-3.41,2.36-5.67,3.08-2.25.73-4.81,1.09-7.69,1.09Z"/>
      <path class="cls-2" d="M624.16,47.84c-3.05,0-5.83-.51-8.35-1.52-2.52-1.02-4.66-2.53-6.43-4.54-1.77-2.01-3.14-4.51-4.11-7.49s-1.46-6.44-1.46-10.37.49-7.39,1.46-10.37,2.34-5.48,4.11-7.49c1.77-2.01,3.91-3.52,6.43-4.54,2.52-1.02,5.3-1.52,8.35-1.52s5.83.51,8.35,1.52c2.52,1.02,4.66,2.53,6.43,4.54,1.77,2.01,3.14,4.51,4.11,7.49s1.46,6.44,1.46,10.37-.49,7.39-1.46,10.37c-.97,2.98-2.34,5.48-4.11,7.49-1.77,2.01-3.91,3.52-6.43,4.54-2.52,1.02-5.3,1.52-8.35,1.52ZM624.16,38.9c3.05,0,5.42-.99,7.12-2.98,1.7-1.99,2.55-4.84,2.55-8.55v-6.89c0-3.71-.85-6.56-2.55-8.55-1.7-1.99-4.08-2.98-7.12-2.98s-5.42.99-7.12,2.98c-1.7,1.99-2.55,4.84-2.55,8.55v6.89c0,3.71.85,6.56,2.55,8.55,1.7,1.99,4.08,2.98,7.12,2.98Z"/>
      <path class="cls-1" d="M256.26,87.01c-1.99,0-3.44-.45-4.34-1.36-.91-.9-1.36-2.06-1.36-3.48v-1.46c0-1.41.45-2.57,1.36-3.48s2.35-1.36,4.34-1.36,3.44.45,4.34,1.36,1.36,2.07,1.36,3.48v1.46c0,1.41-.45,2.57-1.36,3.48-.91.91-2.35,1.36-4.34,1.36ZM251.36,90.72h9.81v34.79h-9.81v-34.79Z"/>
      <path class="cls-1" d="M290.85,126.3c-3.14,0-5.96-.5-8.48-1.49-2.52-.99-4.66-2.47-6.43-4.44-1.77-1.96-3.14-4.42-4.11-7.36-.97-2.94-1.46-6.37-1.46-10.3s.49-7.34,1.46-10.37c.97-3.03,2.34-5.57,4.11-7.62s3.91-3.61,6.43-4.67c2.52-1.06,5.34-1.59,8.48-1.59,4.28,0,7.82.87,10.6,2.62,2.78,1.75,5.01,4.5,6.69,8.25l-8.68,4.51c-.62-1.94-1.58-3.5-2.88-4.67-1.3-1.17-3.21-1.76-5.73-1.76-2.96,0-5.33.96-7.12,2.88-1.79,1.92-2.68,4.72-2.68,8.38v7.42c0,3.67.89,6.46,2.68,8.38,1.79,1.92,4.16,2.88,7.12,2.88,2.47,0,4.45-.67,5.93-2.02,1.48-1.35,2.57-2.97,3.28-4.87l8.22,4.77c-1.72,3.53-3.99,6.26-6.79,8.18-2.81,1.92-6.35,2.88-10.64,2.88Z"/>
      <path class="cls-1" d="M316.63,125.51v-46.25h31.48v8.95h-21.4v9.41h18.36v8.95h-18.36v10.01h21.4v8.95h-31.48Z"/>
      <path class="cls-1" d="M368.91,125.51l-14.91-46.25h10.2l6.89,22.2,3.65,14.51h.2l3.51-14.51,6.89-22.2h9.87l-15.04,46.25h-11.27Z"/>
      <path class="cls-1" d="M419.53,79.25h17.43c3.05,0,5.83.49,8.35,1.46,2.52.97,4.66,2.42,6.43,4.34,1.77,1.92,3.14,4.33,4.11,7.22.97,2.89,1.46,6.26,1.46,10.11s-.49,7.21-1.46,10.1c-.97,2.89-2.34,5.3-4.11,7.22-1.77,1.92-3.91,3.37-6.43,4.34-2.52.97-5.3,1.46-8.35,1.46h-17.43v-46.25ZM436.96,116.56c3,0,5.37-.84,7.09-2.52,1.72-1.68,2.58-4.37,2.58-8.08v-7.16c0-3.71-.86-6.41-2.58-8.08-1.72-1.68-4.09-2.52-7.09-2.52h-7.36v28.36h7.36Z"/>
      <path class="cls-1" d="M467.05,125.51v-46.25h31.48v8.95h-21.4v9.41h18.36v8.95h-18.36v10.01h21.4v8.95h-31.48Z"/>
      <path class="cls-1" d="M525.56,79.25h17.43c3.05,0,5.83.49,8.35,1.46,2.52.97,4.66,2.42,6.43,4.34,1.77,1.92,3.14,4.33,4.11,7.22.97,2.89,1.46,6.26,1.46,10.11s-.49,7.21-1.46,10.1c-.97,2.89-2.34,5.3-4.11,7.22-1.77,1.92-3.91,3.37-6.43,4.34-2.52.97-5.3,1.46-8.35,1.46h-17.43v-46.25ZM542.99,116.56c3,0,5.37-.84,7.09-2.52,1.72-1.68,2.58-4.37,2.58-8.08v-7.16c0-3.71-.86-6.41-2.58-8.08-1.72-1.68-4.09-2.52-7.09-2.52h-7.36v28.36h7.36Z"/>
      <path class="cls-1" d="M571.28,125.51v-8.02h5.96v-30.22h-5.96v-8.02h22v8.02h-5.96v30.22h5.96v8.02h-22Z"/>
      <path class="cls-1" d="M613.09,125.51h-10.07v-46.25h21.93c2.12,0,4.04.35,5.76,1.06,1.72.71,3.19,1.71,4.41,3.02,1.22,1.3,2.15,2.86,2.82,4.67.66,1.81,1,3.82,1,6.03,0,3.14-.7,5.88-2.09,8.22-1.39,2.34-3.5,4.04-6.33,5.1l9.08,18.16h-11.2l-8.08-16.96h-7.22v16.96ZM623.7,100.06c1.5,0,2.68-.39,3.54-1.16.86-.77,1.29-1.91,1.29-3.41v-2.92c0-1.5-.43-2.64-1.29-3.41-.86-.77-2.04-1.16-3.54-1.16h-10.6v12.06h10.6Z"/>
      <path class="cls-1" d="M649.01,125.51v-46.25h31.48v8.95h-21.4v9.41h18.36v8.95h-18.36v10.01h21.4v8.95h-31.48Z"/>
      <path class="cls-1" d="M688.77,125.51v-8.02h5.96v-30.22h-5.96v-8.02h22v8.02h-5.96v30.22h5.96v8.02h-22Z"/>
      <path class="cls-1" d="M739.53,88.2v37.31h-10.07v-37.31h-12.52v-8.95h35.12v8.95h-12.52Z"/>
      <path class="cls-1" d="M777.16,126.3c-3.05,0-5.83-.51-8.35-1.52-2.52-1.02-4.66-2.53-6.43-4.54-1.77-2.01-3.14-4.51-4.11-7.49s-1.46-6.44-1.46-10.37.49-7.39,1.46-10.37c.97-2.98,2.34-5.48,4.11-7.49,1.77-2.01,3.91-3.52,6.43-4.54,2.52-1.02,5.3-1.52,8.35-1.52s5.83.51,8.35,1.52c2.52,1.02,4.66,2.53,6.43,4.54,1.77,2.01,3.14,4.51,4.11,7.49s1.46,6.44,1.46,10.37-.49,7.39-1.46,10.37c-.97,2.98-2.34,5.48-4.11,7.49-1.77,2.01-3.91,3.52-6.43,4.54-2.52,1.02-5.3,1.52-8.35,1.52ZM777.16,117.36c3.05,0,5.42-.99,7.12-2.98,1.7-1.99,2.55-4.84,2.55-8.55v-6.89c0-3.71-.85-6.56-2.55-8.55-1.7-1.99-4.08-2.98-7.12-2.98s-5.42.99-7.12,2.98c-1.7,1.99-2.55,4.84-2.55,8.55v6.89c0,3.71.85,6.56,2.55,8.55,1.7,1.99,4.08,2.98,7.12,2.98Z"/>
      <path class="cls-1" d="M809.76,114.31c1.99,0,3.46.5,4.41,1.49.95.99,1.42,2.26,1.42,3.81v1.33c0,2.69-.65,5.34-1.95,7.95-1.3,2.61-3.02,4.73-5.13,6.36h-6.63c1.54-1.46,2.87-2.9,3.97-4.34,1.1-1.44,1.94-3.04,2.52-4.8-1.55-.27-2.67-.87-3.38-1.82-.71-.95-1.06-2.06-1.06-3.35v-1.33c0-1.54.48-2.82,1.43-3.81.95-.99,2.42-1.49,4.41-1.49Z"/>
      <path class="cls-1" d="M266,182.1l-4.44-9.28h-.2v31.14h-9.48v-46.25h11l12.66,21.87,4.44,9.28h.2v-31.14h9.48v46.25h-11l-12.66-21.87Z"/>
      <path class="cls-1" d="M301.19,203.96v-46.25h31.48v8.95h-21.4v9.41h18.36v8.95h-18.36v10.01h21.4v8.94h-31.48Z"/>
      <path class="cls-1" d="M372.09,196.61h-.33c-.36,2.34-1.55,4.29-3.58,5.83-2.03,1.55-4.79,2.32-8.28,2.32-2.65,0-5.12-.51-7.42-1.52s-4.31-2.52-6.03-4.51c-1.72-1.99-3.07-4.46-4.04-7.42-.97-2.96-1.46-6.38-1.46-10.27s.51-7.33,1.52-10.34c1.02-3,2.44-5.52,4.27-7.55,1.83-2.03,4.03-3.58,6.59-4.64,2.56-1.06,5.41-1.59,8.55-1.59,4.15,0,7.73.89,10.73,2.68,3,1.79,5.37,4.47,7.09,8.05l-8.22,4.7c-.71-1.81-1.81-3.35-3.31-4.61-1.5-1.26-3.6-1.89-6.3-1.89-3.14,0-5.63.91-7.49,2.72-1.86,1.81-2.78,4.66-2.78,8.55v7.42c0,3.84.93,6.68,2.78,8.52,1.86,1.83,4.35,2.75,7.49,2.75,1.24,0,2.41-.14,3.51-.43,1.1-.29,2.08-.73,2.92-1.32.84-.6,1.49-1.31,1.95-2.15.46-.84.7-1.83.7-2.98v-2.32h-8.61v-8.42h18.22v25.78h-8.48v-7.35Z"/>
      <path class="cls-1" d="M410.26,204.76c-3.05,0-5.83-.51-8.35-1.52-2.52-1.02-4.66-2.53-6.43-4.54-1.77-2.01-3.14-4.51-4.11-7.49-.97-2.98-1.46-6.44-1.46-10.37s.49-7.39,1.46-10.37c.97-2.98,2.34-5.48,4.11-7.49,1.77-2.01,3.91-3.52,6.43-4.54,2.52-1.02,5.3-1.52,8.35-1.52s5.83.51,8.35,1.52c2.52,1.02,4.66,2.53,6.43,4.54,1.77,2.01,3.14,4.51,4.11,7.49.97,2.98,1.46,6.44,1.46,10.37s-.49,7.39-1.46,10.37c-.97,2.98-2.34,5.48-4.11,7.49-1.77,2.01-3.91,3.52-6.43,4.54-2.52,1.02-5.3,1.52-8.35,1.52ZM410.26,195.81c3.05,0,5.42-.99,7.12-2.98,1.7-1.99,2.55-4.84,2.55-8.55v-6.89c0-3.71-.85-6.56-2.55-8.55-1.7-1.99-4.08-2.98-7.12-2.98s-5.42.99-7.12,2.98c-1.7,1.99-2.55,4.84-2.55,8.55v6.89c0,3.71.85,6.56,2.55,8.55,1.7,1.99,4.08,2.98,7.12,2.98ZM411.32,154.93l-5.83-2.85,6.56-12.86,8.15,4.04-8.88,11.66Z"/>
      <path class="cls-1" d="M459.03,204.76c-3.14,0-5.96-.5-8.48-1.49-2.52-.99-4.66-2.47-6.43-4.44-1.77-1.96-3.14-4.42-4.11-7.36-.97-2.94-1.46-6.37-1.46-10.3s.49-7.34,1.46-10.37,2.34-5.57,4.11-7.62,3.91-3.61,6.43-4.67c2.52-1.06,5.34-1.59,8.48-1.59,4.28,0,7.82.87,10.6,2.62,2.78,1.75,5.01,4.5,6.69,8.25l-8.68,4.51c-.62-1.94-1.58-3.5-2.88-4.67-1.3-1.17-3.21-1.76-5.73-1.76-2.96,0-5.33.96-7.12,2.88-1.79,1.92-2.68,4.72-2.68,8.38v7.42c0,3.67.89,6.46,2.68,8.38,1.79,1.92,4.16,2.88,7.12,2.88,2.47,0,4.45-.67,5.93-2.02,1.48-1.35,2.57-2.97,3.28-4.87l8.22,4.77c-1.72,3.53-3.99,6.26-6.79,8.18-2.81,1.92-6.35,2.88-10.64,2.88Z"/>
      <path class="cls-1" d="M483.02,203.96v-8.02h5.96v-30.22h-5.96v-8.02h22v8.02h-5.96v30.22h5.96v8.02h-22Z"/>
      <path class="cls-1" d="M533.31,204.76c-3.05,0-5.83-.51-8.35-1.52-2.52-1.02-4.66-2.53-6.43-4.54-1.77-2.01-3.14-4.51-4.11-7.49-.97-2.98-1.46-6.44-1.46-10.37s.49-7.39,1.46-10.37c.97-2.98,2.34-5.48,4.11-7.49,1.77-2.01,3.91-3.52,6.43-4.54,2.52-1.02,5.3-1.52,8.35-1.52s5.83.51,8.35,1.52c2.52,1.02,4.66,2.53,6.43,4.54,1.77,2.01,3.14,4.51,4.11,7.49.97,2.98,1.46,6.44,1.46,10.37s-.49,7.39-1.46,10.37c-.97,2.98-2.34,5.48-4.11,7.49-1.77,2.01-3.91,3.52-6.43,4.54-2.52,1.02-5.3,1.52-8.35,1.52ZM533.31,195.81c3.05,0,5.42-.99,7.12-2.98,1.7-1.99,2.55-4.84,2.55-8.55v-6.89c0-3.71-.85-6.56-2.55-8.55-1.7-1.99-4.08-2.98-7.12-2.98s-5.42.99-7.12,2.98c-1.7,1.99-2.55,4.84-2.55,8.55v6.89c0,3.71.85,6.56,2.55,8.55,1.7,1.99,4.08,2.98,7.12,2.98Z"/>
      <path class="cls-1" d="M578.11,204.76c-4.07,0-7.51-.7-10.34-2.09-2.83-1.39-5.24-3.2-7.22-5.41l6.63-6.7c3.14,3.5,7,5.25,11.6,5.25,2.47,0,4.31-.5,5.5-1.51,1.19-1.01,1.79-2.34,1.79-4.01,0-1.27-.35-2.33-1.06-3.18-.71-.85-2.14-1.43-4.31-1.74l-4.57-.59c-4.9-.62-8.49-2.1-10.77-4.45-2.28-2.34-3.41-5.46-3.41-9.35,0-2.08.4-3.98,1.19-5.71.8-1.72,1.93-3.21,3.41-4.45,1.48-1.24,3.29-2.2,5.43-2.89,2.14-.69,4.58-1.03,7.32-1.03,3.49,0,6.56.55,9.21,1.66,2.65,1.11,4.92,2.72,6.83,4.84l-6.69,6.77c-1.1-1.27-2.44-2.31-4.01-3.11-1.57-.81-3.55-1.21-5.93-1.21-2.25,0-3.93.39-5.04,1.18-1.1.79-1.66,1.88-1.66,3.28,0,1.57.43,2.71,1.29,3.41.86.7,2.26,1.2,4.21,1.51l4.57.73c4.77.75,8.3,2.22,10.6,4.41,2.3,2.19,3.45,5.3,3.45,9.32,0,2.21-.4,4.25-1.19,6.1-.79,1.86-1.95,3.45-3.48,4.77-1.52,1.33-3.41,2.36-5.67,3.09-2.25.73-4.81,1.09-7.69,1.09Z"/>
      <path class="cls-1" d="M622.77,203.96v-46.25h31.48v8.95h-21.4v9.41h18.36v8.95h-18.36v10.01h21.4v8.94h-31.48Z"/>
      <path class="cls-1" d="M271.17,245.12v37.31h-10.07v-37.31h-12.52v-8.95h35.12v8.95h-12.52Z"/>
      <path class="cls-1" d="M291.91,282.42v-46.25h31.48v8.95h-21.4v9.41h18.36v8.95h-18.36v10.01h21.4v8.94h-31.48Z"/>
      <path class="cls-1" d="M352.15,283.22c-3.14,0-5.96-.5-8.48-1.49-2.52-.99-4.66-2.47-6.43-4.44-1.77-1.96-3.14-4.42-4.11-7.36-.97-2.94-1.46-6.37-1.46-10.3s.49-7.34,1.46-10.37,2.34-5.57,4.11-7.62c1.77-2.05,3.91-3.61,6.43-4.67,2.52-1.06,5.34-1.59,8.48-1.59,4.28,0,7.82.87,10.6,2.62,2.78,1.74,5.01,4.49,6.69,8.25l-8.68,4.51c-.62-1.94-1.58-3.5-2.88-4.67-1.3-1.17-3.21-1.76-5.73-1.76-2.96,0-5.33.96-7.12,2.88-1.79,1.92-2.68,4.72-2.68,8.38v7.42c0,3.67.89,6.46,2.68,8.38,1.79,1.92,4.16,2.88,7.12,2.88,2.47,0,4.45-.67,5.93-2.02,1.48-1.35,2.57-2.97,3.28-4.87l8.22,4.77c-1.72,3.53-3.99,6.26-6.79,8.18-2.81,1.92-6.35,2.88-10.64,2.88Z"/>
      <path class="cls-1" d="M392.03,260.56l-4.44-9.28h-.2v31.14h-9.48v-46.25h11l12.66,21.87,4.44,9.28h.2v-31.14h9.48v46.25h-11l-12.66-21.87Z"/>
      <path class="cls-1" d="M445.77,283.22c-3.05,0-5.83-.51-8.35-1.52-2.52-1.02-4.66-2.53-6.43-4.54-1.77-2.01-3.14-4.51-4.11-7.49-.97-2.98-1.46-6.44-1.46-10.37s.49-7.39,1.46-10.37c.97-2.98,2.34-5.48,4.11-7.49s3.91-3.52,6.43-4.54c2.52-1.01,5.3-1.52,8.35-1.52s5.83.51,8.35,1.52c2.52,1.02,4.66,2.53,6.43,4.54,1.77,2.01,3.14,4.51,4.11,7.49.97,2.98,1.46,6.44,1.46,10.37s-.49,7.39-1.46,10.37c-.97,2.98-2.34,5.48-4.11,7.49-1.77,2.01-3.91,3.52-6.43,4.54-2.52,1.02-5.3,1.52-8.35,1.52ZM445.77,274.27c3.05,0,5.42-.99,7.12-2.98,1.7-1.99,2.55-4.84,2.55-8.55v-6.89c0-3.71-.85-6.56-2.55-8.55-1.7-1.99-4.08-2.98-7.12-2.98s-5.42.99-7.12,2.98c-1.7,1.99-2.55,4.84-2.55,8.55v6.89c0,3.71.85,6.56,2.55,8.55,1.7,1.99,4.08,2.98,7.12,2.98Z"/>
      <path class="cls-1" d="M475.86,282.42v-46.25h10.07v37.31h17.63v8.94h-27.7Z"/>
      <path class="cls-1" d="M528.21,283.22c-3.05,0-5.83-.51-8.35-1.52-2.52-1.02-4.66-2.53-6.43-4.54-1.77-2.01-3.14-4.51-4.11-7.49-.97-2.98-1.46-6.44-1.46-10.37s.49-7.39,1.46-10.37c.97-2.98,2.34-5.48,4.11-7.49,1.77-2.01,3.91-3.52,6.43-4.54,2.52-1.01,5.3-1.52,8.35-1.52s5.83.51,8.35,1.52c2.52,1.02,4.66,2.53,6.43,4.54,1.77,2.01,3.14,4.51,4.11,7.49.97,2.98,1.46,6.44,1.46,10.37s-.49,7.39-1.46,10.37c-.97,2.98-2.34,5.48-4.11,7.49-1.77,2.01-3.91,3.52-6.43,4.54-2.52,1.02-5.3,1.52-8.35,1.52ZM528.21,274.27c3.05,0,5.42-.99,7.12-2.98,1.7-1.99,2.55-4.84,2.55-8.55v-6.89c0-3.71-.85-6.56-2.55-8.55-1.7-1.99-4.08-2.98-7.12-2.98s-5.42.99-7.12,2.98c-1.7,1.99-2.55,4.84-2.55,8.55v6.89c0,3.71.85,6.56,2.55,8.55,1.7,1.99,4.08,2.98,7.12,2.98Z"/>
      <path class="cls-1" d="M587.65,275.07h-.33c-.36,2.34-1.55,4.29-3.58,5.83-2.03,1.55-4.79,2.32-8.28,2.32-2.65,0-5.12-.51-7.42-1.52-2.3-1.02-4.31-2.52-6.03-4.51-1.72-1.99-3.07-4.46-4.04-7.42-.97-2.96-1.46-6.38-1.46-10.27s.51-7.33,1.52-10.34c1.02-3,2.44-5.52,4.27-7.55,1.83-2.03,4.03-3.58,6.59-4.64,2.56-1.06,5.41-1.59,8.55-1.59,4.15,0,7.73.89,10.73,2.68s5.37,4.47,7.09,8.05l-8.22,4.7c-.71-1.81-1.81-3.35-3.31-4.61s-3.6-1.89-6.3-1.89c-3.14,0-5.63.91-7.49,2.72-1.86,1.81-2.78,4.66-2.78,8.55v7.42c0,3.84.93,6.68,2.78,8.52s4.35,2.75,7.49,2.75c1.24,0,2.41-.14,3.51-.43,1.1-.29,2.08-.73,2.92-1.32.84-.6,1.49-1.31,1.95-2.15.46-.84.7-1.83.7-2.98v-2.32h-8.61v-8.42h18.22v25.78h-8.48v-7.35Z"/>
      <path class="cls-1" d="M605.47,282.42v-8.02h5.96v-30.22h-5.96v-8.02h22v8.02h-5.96v30.22h5.96v8.02h-22Z"/>
      <path class="cls-1" d="M665.71,282.42l-3.31-11h-15.44l-3.31,11h-10.21l15.24-46.25h12.46l15.04,46.25h-10.47ZM654.77,245.32h-.33l-5.1,17.56h10.6l-5.17-17.56Z"/>
    </g>
    <g>
      <path class="cls-1" d="M53.49,90.18c1.56.34,3.12.65,4.67,1.04,12.73,3.2,21.38,14.25,21.38,27.34,0,13.86.14,27.73-.13,41.58-.24,12.39-5.76,22.15-16.09,29.04-4.37,2.91-9.24,4.27-14.68,3.75v-17h3.27v14.12c2.8-.96,5.42-1.45,7.63-2.67,10.16-5.61,15.92-14.4,16.34-25.92.52-14.38.28-28.79.21-43.19-.07-13.87-11.3-24.65-25.44-24.66-.64,0-1.29,0-2.15,0v-3.43c1.67,0,3.33,0,5,0Z"/>
      <path class="cls-1" d="M95.05,90.18c1.55.35,3.12.65,4.66,1.04,12.72,3.21,21.36,14.24,21.36,27.35,0,13.86.16,27.73-.16,41.58-.31,13.34-6.43,23.52-18.07,30.18-4.05,2.31-8.22,3.01-12.66,2.56v-16.97h3.28v14.13c2.8-.96,5.42-1.45,7.63-2.68,10.33-5.74,16.01-14.7,16.37-26.45.42-13.97-.02-27.96.25-41.93.3-15.57-13.2-25.69-25.7-25.37-.58.01-1.17,0-1.96,0v-3.43c1.67,0,3.33,0,5,0Z"/>
      <path class="cls-1" d="M27.61,90.18c-.05,1.11-.11,2.23-.16,3.39-1.44.23-2.79.39-4.11.67-11.54,2.49-19.6,12.04-19.8,23.85-.19,11.24-.23,22.49-.1,33.73.14,12.07,9.85,22.34,22.09,23.73.64.07,1.27.17,1.91.26v3.34c-1.22-.14-2.33-.22-3.43-.4C9.99,176.49,0,164.79,0,150.63c0-10.23.04-20.47.06-30.7.04-15.74,9.23-26.67,24.77-29.48.22-.04.42-.18.63-.28.71,0,1.43,0,2.14,0Z"/>
      <path class="cls-1" d="M170.42,177.63c-5.15.08-9.79-.68-14.06-2.93-9.22-4.85-14.22-12.38-14.24-22.94-.02-11.04.03-22.08.07-33.12.05-12.43,9.07-23.04,21.34-25.09,10.15-1.7,18.87,1.04,25.86,8.67,3.86,4.22,5.97,9.3,5.99,15.04.06,15.35.15,30.7-.12,46.04-.21,12.38-10.11,24.98-21.42,27.95-1.04.27-2.11.43-3.42.69v-14.31Z"/>
    </g>
  </g>
</svg>